<?xml version="1.0" encoding="UTF-8" standalone="no"?>
<!-- Created with Inkscape (http://www.inkscape.org/) -->

<svg
   xmlns:dc="http://purl.org/dc/elements/1.1/"
   xmlns:cc="http://creativecommons.org/ns#"
   xmlns:rdf="http://www.w3.org/1999/02/22-rdf-syntax-ns#"
   xmlns:svg="http://www.w3.org/2000/svg"
   xmlns="http://www.w3.org/2000/svg"
   xmlns:xlink="http://www.w3.org/1999/xlink"
   xmlns:sodipodi="http://sodipodi.sourceforge.net/DTD/sodipodi-0.dtd"
   xmlns:inkscape="http://www.inkscape.org/namespaces/inkscape"
   width="297mm"
   height="210mm"
   id="svg4914"
   version="1.1"
   inkscape:version="0.48.4 r9939"
   sodipodi:docname="dikw-pyramid.svg">
  <defs
     id="defs4916">
    <linearGradient
       id="linearGradient5689">
      <stop
         style="stop-color:#000000;stop-opacity:1;"
         offset="0"
         id="stop5691" />
      <stop
         id="stop5701"
         offset="0.5"
         style="stop-color:#0c577f;stop-opacity:0.52941176;" />
      <stop
         style="stop-color:#19aeff;stop-opacity:0.06392694"
         offset="1"
         id="stop5693" />
    </linearGradient>
    <clipPath
       id="clipPath5104"
       clipPathUnits="userSpaceOnUse">
      <path
         id="path5106"
         d="M 0,0 0,394 554,394 554,0 0,0 z" />
    </clipPath>
    <clipPath
       id="clipPath4992"
       clipPathUnits="userSpaceOnUse">
      <path
         id="path4994"
         d="M 0,0 554,0 554,394 0,394 0,0 z" />
    </clipPath>
    <clipPath
       id="clipPath4986"
       clipPathUnits="userSpaceOnUse">
      <path
         id="path4988"
         d="M 0,0 0,394 554,394 554,0 0,0 z" />
    </clipPath>
    <clipPath
       id="clipPath4972"
       clipPathUnits="userSpaceOnUse">
      <path
         id="path4974"
         d="M 0,0 554,0 554,394 0,394 0,0 z" />
    </clipPath>
    <linearGradient
       inkscape:collect="always"
       xlink:href="#linearGradient5689"
       id="linearGradient5699"
       x1="-576.59534"
       y1="36.824951"
       x2="-581.96802"
       y2="681.75092"
       gradientUnits="userSpaceOnUse" />
    <filter
       inkscape:collect="always"
       id="filter5751">
      <feGaussianBlur
         inkscape:collect="always"
         stdDeviation="6.8785232"
         id="feGaussianBlur5753" />
    </filter>
  </defs>
  <sodipodi:namedview
     inkscape:document-units="mm"
     pagecolor="#ffffff"
     bordercolor="#666666"
     borderopacity="1.0"
     inkscape:pageopacity="0.0"
     inkscape:pageshadow="2"
     inkscape:zoom="0.43415836"
     inkscape:cx="82.314657"
     inkscape:cy="380"
     inkscape:current-layer="layer1"
     id="namedview4918"
     showgrid="false"
     inkscape:window-width="1366"
     inkscape:window-height="744"
     inkscape:window-x="0"
     inkscape:window-y="24"
     inkscape:window-maximized="1" />
  <metadata
     id="metadata4920">
    <rdf:RDF>
      <cc:Work
         rdf:about="">
        <dc:format>image/svg+xml</dc:format>
        <dc:type
           rdf:resource="http://purl.org/dc/dcmitype/StillImage" />
        <dc:title></dc:title>
      </cc:Work>
    </rdf:RDF>
  </metadata>
  <g
     inkscape:label="Layer 1"
     inkscape:groupmode="layer"
     id="layer1">
    <g
       transform="matrix(1.25,0,0,1.25,192.72384,166.16827)"
       inkscape:label="data-info-knowledge"
       id="g4966"
       inkscape:export-filename="/data/dataDeebul/thesis/tex/robocup_symposium_poster/images/dikw-pyramid.png"
       inkscape:export-xdpi="90"
       inkscape:export-ydpi="90">
      <g
         id="g4968">
        <g
           clip-path="url(#clipPath4972)"
           id="g4970">
          <g
             id="g4976">
            <g
               id="g4978" />
          </g>
          <g
             id="g4980">
            <g
               id="g4982">
              <g
                 clip-path="url(#clipPath4986)"
                 id="g4984">
                <g
                   clip-path="url(#clipPath4992)"
                   id="g4990">
                  <g
                     transform="translate(-131,-77)"
                     id="g4996">
                    <path
                       id="path4998"
                       style="fill:#ffffff;fill-opacity:1;fill-rule:nonzero;stroke:none"
                       d="m 131,77 554,0 0,394 -554,0 0,-394 z"
                       inkscape:connector-curvature="0" />
                    <g
                       id="g5000">
                      <path
                         id="path5002"
                         style="fill:#ccffff;fill-opacity:1;fill-rule:nonzero;stroke:none"
                         d="m 176,288 0,70 c 0,2.21 1.79,4 4,4 l 456,0 c 2.21,0 4,-1.79 4,-4 l 0,-70 c 0,-2.21 -1.79,-4 -4,-4 l -456,0 c -2.21,0 -4,1.79 -4,4 z"
                         inkscape:connector-curvature="0" />
                      <path
                         id="path5004"
                         style="fill:none;stroke:#000000;stroke-width:1;stroke-linecap:butt;stroke-linejoin:miter;stroke-miterlimit:1.45000005;stroke-opacity:1;stroke-dasharray:none"
                         d="m 176,288 0,70 c 0,2.21 1.79,4 4,4 l 456,0 c 2.21,0 4,-1.79 4,-4 l 0,-70 c 0,-2.21 -1.79,-4 -4,-4 l -456,0 c -2.21,0 -4,1.79 -4,4 z"
                         inkscape:connector-curvature="0" />
                      <path
                         id="path5006"
                         style="fill:#ccffff;fill-opacity:1;fill-rule:nonzero;stroke:none"
                         d="m 176,192 0,70 c 0,2.21 1.79,4 4,4 l 456,0 c 2.21,0 4,-1.79 4,-4 l 0,-70 c 0,-2.21 -1.79,-4 -4,-4 l -456,0 c -2.21,0 -4,1.79 -4,4 z"
                         inkscape:connector-curvature="0" />
                      <path
                         id="path5008"
                         style="fill:none;stroke:#000000;stroke-width:1;stroke-linecap:butt;stroke-linejoin:miter;stroke-miterlimit:1.45000005;stroke-opacity:1;stroke-dasharray:none"
                         d="m 176,192 0,70 c 0,2.21 1.79,4 4,4 l 456,0 c 2.21,0 4,-1.79 4,-4 l 0,-70 c 0,-2.21 -1.79,-4 -4,-4 l -456,0 c -2.21,0 -4,1.79 -4,4 z"
                         inkscape:connector-curvature="0" />
                      <path
                         id="path5010"
                         style="fill:#ccffff;fill-opacity:1;fill-rule:nonzero;stroke:none"
                         d="m 176,96 0,70 c 0,2.21 1.79,4 4,4 l 456,0 c 2.21,0 4,-1.79 4,-4 l 0,-70 c 0,-2.209 -1.79,-4 -4,-4 l -456,0 c -2.21,0 -4,1.791 -4,4 z"
                         inkscape:connector-curvature="0" />
                      <path
                         id="path5012"
                         style="fill:none;stroke:#000000;stroke-width:1;stroke-linecap:butt;stroke-linejoin:miter;stroke-miterlimit:1.45000005;stroke-opacity:1;stroke-dasharray:none"
                         d="m 176,96 0,70 c 0,2.21 1.79,4 4,4 l 456,0 c 2.21,0 4,-1.79 4,-4 l 0,-70 c 0,-2.209 -1.79,-4 -4,-4 l -456,0 c -2.21,0 -4,1.791 -4,4 z"
                         inkscape:connector-curvature="0" />
                      <path
                         id="path5014"
                         style="fill:#000000;fill-opacity:1;fill-rule:nonzero;stroke:none"
                         d="m 205.72,223.08 0,1.25 c -0.41,-0.38 -0.83,-0.66 -1.28,-0.84 -0.45,-0.18 -0.93,-0.27 -1.44,-0.27 -1,0 -1.76,0.3 -2.3,0.92 -0.53,0.61 -0.79,1.5 -0.79,2.65 0,1.15 0.26,2.03 0.79,2.65 0.54,0.61 1.3,0.92 2.3,0.92 0.51,0 0.99,-0.1 1.44,-0.28 0.45,-0.19 0.87,-0.47 1.28,-0.83 l 0,1.23 c -0.42,0.28 -0.86,0.49 -1.32,0.64 -0.46,0.14 -0.95,0.21 -1.46,0.21 -1.33,0 -2.38,-0.41 -3.14,-1.22 -0.76,-0.82 -1.14,-1.92 -1.14,-3.32 0,-1.4 0.38,-2.51 1.14,-3.32 0.76,-0.82 1.81,-1.22 3.14,-1.22 0.52,0 1.01,0.07 1.48,0.21 0.46,0.14 0.89,0.35 1.3,0.62 z m 1.66,5.48 0,-3.97 1.08,0 0,3.94 c 0,0.61 0.12,1.08 0.37,1.39 0.24,0.31 0.6,0.47 1.08,0.47 0.58,0 1.05,-0.19 1.38,-0.56 0.34,-0.37 0.51,-0.87 0.51,-1.52 l 0,-3.72 1.08,0 0,6.56 -1.08,0 0,-1.01 c -0.26,0.4 -0.56,0.7 -0.9,0.9 -0.35,0.19 -0.75,0.29 -1.21,0.29 -0.76,0 -1.33,-0.24 -1.72,-0.71 -0.39,-0.47 -0.59,-1.15 -0.59,-2.06 z m 8.76,1.61 0,3.48 -1.08,0 0,-9.06 1.08,0 0,1 c 0.23,-0.39 0.52,-0.69 0.86,-0.87 0.34,-0.19 0.76,-0.28 1.24,-0.28 0.8,0 1.45,0.31 1.95,0.94 0.5,0.63 0.75,1.46 0.75,2.49 0,1.03 -0.25,1.87 -0.75,2.5 -0.5,0.64 -1.15,0.96 -1.95,0.96 -0.48,0 -0.9,-0.1 -1.24,-0.29 -0.34,-0.2 -0.63,-0.48 -0.86,-0.87 z m 3.67,-2.3 c 0,-0.79 -0.16,-1.41 -0.49,-1.86 -0.33,-0.44 -0.77,-0.67 -1.33,-0.67 -0.58,0 -1.03,0.23 -1.36,0.67 -0.32,0.45 -0.49,1.07 -0.49,1.86 0,0.79 0.17,1.42 0.49,1.87 0.33,0.45 0.78,0.68 1.36,0.68 0.56,0 1,-0.23 1.33,-0.68 0.33,-0.45 0.49,-1.08 0.49,-1.87 z m 6.72,-5.84 1.07,0 0,9.12 -1.07,0 0,-9.12 z m 5.88,3.31 c -0.58,0 -1.03,0.23 -1.37,0.68 -0.34,0.45 -0.51,1.07 -0.51,1.85 0,0.79 0.17,1.41 0.5,1.86 0.34,0.45 0.79,0.67 1.38,0.67 0.57,0 1.03,-0.22 1.36,-0.68 0.34,-0.45 0.51,-1.07 0.51,-1.85 0,-0.77 -0.17,-1.38 -0.51,-1.84 -0.33,-0.46 -0.79,-0.69 -1.36,-0.69 z m 0,-0.9 c 0.93,0 1.67,0.3 2.21,0.91 0.53,0.61 0.8,1.45 0.8,2.52 0,1.08 -0.27,1.92 -0.8,2.53 -0.54,0.62 -1.28,0.93 -2.21,0.93 -0.94,0 -1.68,-0.31 -2.21,-0.93 -0.54,-0.61 -0.81,-1.45 -0.81,-2.53 0,-1.07 0.27,-1.91 0.81,-2.52 0.53,-0.61 1.27,-0.91 2.21,-0.91 z m 9.53,0.4 0,1.02 c -0.32,-0.18 -0.62,-0.31 -0.93,-0.39 -0.3,-0.09 -0.6,-0.13 -0.92,-0.13 -0.71,0 -1.25,0.22 -1.64,0.67 -0.38,0.44 -0.58,1.06 -0.58,1.86 0,0.81 0.2,1.43 0.58,1.87 0.39,0.44 0.93,0.66 1.64,0.66 0.32,0 0.62,-0.04 0.92,-0.12 0.31,-0.08 0.61,-0.21 0.93,-0.38 l 0,1 c -0.31,0.14 -0.62,0.24 -0.94,0.32 -0.32,0.07 -0.67,0.11 -1.03,0.11 -0.99,0 -1.78,-0.31 -2.36,-0.93 -0.58,-0.62 -0.88,-1.46 -0.88,-2.53 0,-1.06 0.3,-1.9 0.89,-2.51 0.58,-0.62 1.39,-0.92 2.43,-0.92 0.32,0 0.64,0.03 0.96,0.1 0.31,0.06 0.62,0.17 0.93,0.3 z m 4.84,3.02 c -0.86,0 -1.46,0.1 -1.8,0.29 -0.34,0.2 -0.51,0.54 -0.51,1.02 0,0.39 0.13,0.69 0.38,0.91 0.26,0.23 0.6,0.34 1.03,0.34 0.6,0 1.08,-0.21 1.44,-0.63 0.36,-0.42 0.54,-0.99 0.54,-1.7 l 0,-0.23 -1.08,0 z m 2.16,-0.46 0,3.75 -1.08,0 0,-1 c -0.25,0.4 -0.55,0.69 -0.92,0.89 -0.36,0.19 -0.81,0.29 -1.34,0.29 -0.68,0 -1.22,-0.19 -1.61,-0.57 -0.4,-0.38 -0.6,-0.89 -0.6,-1.51 0,-0.74 0.25,-1.3 0.75,-1.67 0.49,-0.38 1.23,-0.57 2.21,-0.57 l 1.51,0 0,-0.11 c 0,-0.5 -0.16,-0.88 -0.49,-1.15 -0.33,-0.27 -0.78,-0.41 -1.37,-0.41 -0.37,0 -0.74,0.05 -1.1,0.14 -0.36,0.1 -0.7,0.23 -1.02,0.41 l 0,-1 c 0.39,-0.16 0.78,-0.27 1.15,-0.35 0.37,-0.07 0.73,-0.1 1.08,-0.1 0.95,0 1.66,0.24 2.13,0.73 0.47,0.49 0.7,1.23 0.7,2.23 z m 3.29,-4.67 0,1.86 2.22,0 0,0.85 -2.22,0 0,3.56 c 0,0.53 0.07,0.87 0.22,1.02 0.15,0.15 0.44,0.23 0.89,0.23 l 1.11,0 0,0.9 -1.11,0 c -0.83,0 -1.41,-0.15 -1.73,-0.46 -0.31,-0.32 -0.47,-0.88 -0.47,-1.69 l 0,-3.56 -0.78,0 0,-0.85 0.78,0 0,-1.86 1.09,0 z m 3.63,1.86 1.08,0 0,6.56 -1.08,0 0,-6.56 z m 0,-2.56 1.08,0 0,1.37 -1.08,0 0,-1.37 z m 5.88,3.31 c -0.57,0 -1.03,0.23 -1.37,0.68 -0.34,0.45 -0.51,1.07 -0.51,1.85 0,0.79 0.17,1.41 0.5,1.86 0.34,0.45 0.8,0.67 1.38,0.67 0.57,0 1.03,-0.22 1.37,-0.68 0.33,-0.45 0.5,-1.07 0.5,-1.85 0,-0.77 -0.17,-1.38 -0.5,-1.84 -0.34,-0.46 -0.8,-0.69 -1.37,-0.69 z m 0,-0.9 c 0.94,0 1.67,0.3 2.21,0.91 0.54,0.61 0.8,1.45 0.8,2.52 0,1.08 -0.26,1.92 -0.8,2.53 -0.54,0.62 -1.27,0.93 -2.21,0.93 -0.94,0 -1.68,-0.31 -2.21,-0.93 -0.54,-0.61 -0.81,-1.45 -0.81,-2.53 0,-1.07 0.27,-1.91 0.81,-2.52 0.53,-0.61 1.27,-0.91 2.21,-0.91 z m 10.26,2.75 0,3.96 -1.08,0 0,-3.92 c 0,-0.62 -0.12,-1.09 -0.36,-1.4 -0.25,-0.3 -0.61,-0.46 -1.09,-0.46 -0.58,0 -1.04,0.19 -1.38,0.56 -0.34,0.37 -0.51,0.88 -0.51,1.52 l 0,3.7 -1.08,0 0,-6.56 1.08,0 0,1.02 c 0.26,-0.4 0.57,-0.69 0.92,-0.89 0.34,-0.19 0.75,-0.28 1.21,-0.28 0.75,0 1.32,0.23 1.71,0.69 0.39,0.46 0.58,1.15 0.58,2.06 z"
                         inkscape:connector-curvature="0" />
                      <path
                         id="path5016"
                         style="fill:#000000;fill-opacity:1;fill-rule:nonzero;stroke:none"
                         d="m 350.58,119.42 1.19,0 0,5.31 c 0,0.94 0.17,1.61 0.51,2.03 0.34,0.41 0.89,0.61 1.65,0.61 0.76,0 1.31,-0.2 1.65,-0.61 0.34,-0.42 0.5,-1.09 0.5,-2.03 l 0,-5.31 1.19,0 0,5.47 c 0,1.13 -0.28,1.99 -0.84,2.58 -0.56,0.58 -1.4,0.87 -2.5,0.87 -1.11,0 -1.94,-0.29 -2.5,-0.87 -0.56,-0.59 -0.85,-1.45 -0.85,-2.58 l 0,-5.47 z m 13.05,2.37 0,1.04 c -0.3,-0.16 -0.61,-0.28 -0.94,-0.36 -0.33,-0.07 -0.67,-0.11 -1.02,-0.11 -0.54,0 -0.94,0.08 -1.21,0.24 -0.27,0.16 -0.4,0.41 -0.4,0.74 0,0.25 0.09,0.45 0.28,0.59 0.2,0.14 0.59,0.27 1.17,0.4 l 0.36,0.09 c 0.77,0.16 1.32,0.39 1.64,0.69 0.32,0.3 0.48,0.72 0.48,1.25 0,0.61 -0.24,1.1 -0.72,1.45 -0.49,0.35 -1.15,0.53 -2,0.53 -0.35,0 -0.72,-0.03 -1.1,-0.1 -0.38,-0.07 -0.78,-0.17 -1.19,-0.3 l 0,-1.13 c 0.39,0.21 0.78,0.37 1.17,0.47 0.38,0.1 0.77,0.16 1.16,0.16 0.5,0 0.88,-0.09 1.16,-0.26 0.28,-0.17 0.41,-0.42 0.41,-0.74 0,-0.3 -0.1,-0.52 -0.29,-0.68 -0.2,-0.15 -0.63,-0.3 -1.3,-0.45 l -0.37,-0.08 c -0.67,-0.14 -1.15,-0.36 -1.45,-0.65 -0.3,-0.3 -0.45,-0.69 -0.45,-1.19 0,-0.63 0.22,-1.11 0.66,-1.44 0.44,-0.33 1.06,-0.5 1.86,-0.5 0.4,0 0.77,0.03 1.13,0.09 0.35,0.05 0.67,0.14 0.96,0.25 z m 7.69,2.83 0,0.52 -4.97,0 c 0.06,0.75 0.28,1.32 0.68,1.7 0.41,0.39 0.96,0.58 1.67,0.58 0.41,0 0.82,-0.05 1.21,-0.15 0.39,-0.1 0.78,-0.25 1.16,-0.46 l 0,1.03 c -0.39,0.16 -0.79,0.28 -1.2,0.37 -0.41,0.09 -0.82,0.13 -1.23,0.13 -1.05,0 -1.87,-0.3 -2.49,-0.91 -0.61,-0.61 -0.92,-1.44 -0.92,-2.48 0,-1.07 0.29,-1.92 0.87,-2.55 0.59,-0.63 1.37,-0.95 2.35,-0.95 0.88,0 1.58,0.29 2.1,0.85 0.52,0.57 0.77,1.34 0.77,2.32 z m -1.07,-0.33 c -0.02,-0.58 -0.18,-1.05 -0.5,-1.4 -0.33,-0.36 -0.75,-0.53 -1.29,-0.53 -0.6,0 -1.08,0.17 -1.44,0.51 -0.36,0.35 -0.57,0.83 -0.62,1.44 l 3.85,-0.02 z m 6.64,-1.68 c -0.12,-0.07 -0.25,-0.11 -0.39,-0.15 -0.15,-0.04 -0.3,-0.06 -0.48,-0.06 -0.61,0 -1.07,0.2 -1.4,0.6 -0.33,0.39 -0.49,0.97 -0.49,1.72 l 0,3.45 -1.08,0 0,-6.56 1.08,0 0,1.01 c 0.23,-0.39 0.52,-0.69 0.89,-0.88 0.36,-0.19 0.81,-0.29 1.33,-0.29 0.07,0 0.15,0.01 0.24,0.02 0.09,0.01 0.18,0.02 0.29,0.04 l 0.01,1.1 z m 5.99,4.58 0,3.48 -1.08,0 0,-9.06 1.08,0 0,1 c 0.23,-0.4 0.51,-0.69 0.86,-0.88 0.34,-0.19 0.75,-0.28 1.23,-0.28 0.8,0 1.45,0.32 1.95,0.95 0.5,0.63 0.75,1.46 0.75,2.49 0,1.03 -0.25,1.86 -0.75,2.5 -0.5,0.63 -1.15,0.95 -1.95,0.95 -0.48,0 -0.89,-0.09 -1.23,-0.29 -0.35,-0.19 -0.63,-0.48 -0.86,-0.86 z m 3.67,-2.3 c 0,-0.79 -0.17,-1.41 -0.49,-1.86 -0.33,-0.45 -0.78,-0.67 -1.34,-0.67 -0.57,0 -1.02,0.22 -1.35,0.67 -0.33,0.45 -0.49,1.07 -0.49,1.86 0,0.79 0.16,1.41 0.49,1.87 0.33,0.45 0.78,0.68 1.35,0.68 0.56,0 1.01,-0.23 1.34,-0.68 0.32,-0.46 0.49,-1.08 0.49,-1.87 z m 6.71,-2.28 c -0.13,-0.07 -0.26,-0.11 -0.4,-0.15 -0.14,-0.04 -0.3,-0.06 -0.48,-0.06 -0.6,0 -1.07,0.2 -1.39,0.6 -0.33,0.39 -0.5,0.97 -0.5,1.72 l 0,3.45 -1.07,0 0,-6.56 1.07,0 0,1.01 c 0.23,-0.39 0.53,-0.69 0.89,-0.88 0.37,-0.19 0.81,-0.29 1.33,-0.29 0.07,0 0.16,0.01 0.24,0.02 0.09,0.01 0.19,0.02 0.29,0.04 l 0.02,1.1 z m 6.74,2.01 0,0.52 -4.96,0 c 0.05,0.75 0.27,1.32 0.68,1.7 0.4,0.39 0.95,0.58 1.66,0.58 0.42,0 0.82,-0.05 1.21,-0.15 0.39,-0.1 0.78,-0.25 1.16,-0.46 l 0,1.03 c -0.39,0.16 -0.79,0.28 -1.2,0.37 -0.4,0.09 -0.82,0.13 -1.23,0.13 -1.04,0 -1.87,-0.3 -2.49,-0.91 -0.61,-0.61 -0.92,-1.44 -0.92,-2.48 0,-1.07 0.29,-1.92 0.88,-2.55 0.58,-0.63 1.36,-0.95 2.34,-0.95 0.89,0 1.59,0.29 2.1,0.85 0.52,0.57 0.77,1.34 0.77,2.32 z m -1.07,-0.33 c -0.01,-0.58 -0.18,-1.05 -0.5,-1.4 -0.33,-0.36 -0.75,-0.53 -1.28,-0.53 -0.61,0 -1.09,0.17 -1.45,0.51 -0.36,0.35 -0.56,0.83 -0.62,1.44 l 3.85,-0.02 z m 6.16,-5.25 0,0.91 -1.03,0 c -0.39,0 -0.65,0.08 -0.81,0.24 -0.15,0.15 -0.22,0.43 -0.22,0.84 l 0,0.58 1.78,0 0,0.84 -1.78,0 0,5.72 -1.08,0 0,-5.72 -1.03,0 0,-0.84 1.03,0 0,-0.46 c 0,-0.72 0.17,-1.26 0.51,-1.6 0.34,-0.34 0.88,-0.51 1.62,-0.51 l 1.01,0 z m 6.52,5.58 0,0.52 -4.97,0 c 0.06,0.75 0.28,1.32 0.68,1.7 0.4,0.39 0.96,0.58 1.67,0.58 0.41,0 0.82,-0.05 1.21,-0.15 0.39,-0.1 0.78,-0.25 1.16,-0.46 l 0,1.03 c -0.39,0.16 -0.79,0.28 -1.2,0.37 -0.41,0.09 -0.82,0.13 -1.24,0.13 -1.04,0 -1.86,-0.3 -2.48,-0.91 -0.61,-0.61 -0.92,-1.44 -0.92,-2.48 0,-1.07 0.29,-1.92 0.87,-2.55 0.59,-0.63 1.37,-0.95 2.35,-0.95 0.88,0 1.58,0.29 2.1,0.85 0.51,0.57 0.77,1.34 0.77,2.32 z m -1.08,-0.33 c -0.01,-0.58 -0.17,-1.05 -0.5,-1.4 -0.32,-0.36 -0.75,-0.53 -1.28,-0.53 -0.6,0 -1.08,0.17 -1.44,0.51 -0.36,0.35 -0.57,0.83 -0.62,1.44 l 3.84,-0.02 z m 6.65,-1.68 c -0.12,-0.07 -0.26,-0.11 -0.4,-0.15 -0.14,-0.04 -0.3,-0.06 -0.47,-0.06 -0.61,0 -1.07,0.2 -1.4,0.6 -0.33,0.39 -0.49,0.97 -0.49,1.72 l 0,3.45 -1.08,0 0,-6.56 1.08,0 0,1.01 c 0.23,-0.39 0.52,-0.69 0.89,-0.88 0.36,-0.19 0.8,-0.29 1.33,-0.29 0.07,0 0.15,0.01 0.24,0.02 0.09,0.01 0.18,0.02 0.29,0.04 l 0.01,1.1 z m 6.75,2.01 0,0.52 -4.97,0 c 0.05,0.75 0.28,1.32 0.68,1.7 0.4,0.39 0.96,0.58 1.66,0.58 0.42,0 0.82,-0.05 1.21,-0.15 0.4,-0.1 0.78,-0.25 1.17,-0.46 l 0,1.03 c -0.4,0.16 -0.8,0.28 -1.2,0.37 -0.41,0.09 -0.82,0.13 -1.24,0.13 -1.04,0 -1.87,-0.3 -2.48,-0.91 -0.62,-0.61 -0.93,-1.44 -0.93,-2.48 0,-1.07 0.3,-1.92 0.88,-2.55 0.58,-0.63 1.36,-0.95 2.34,-0.95 0.89,0 1.59,0.29 2.11,0.85 0.51,0.57 0.77,1.34 0.77,2.32 z m -1.08,-0.33 c -0.01,-0.58 -0.18,-1.05 -0.5,-1.4 -0.32,-0.36 -0.75,-0.53 -1.28,-0.53 -0.6,0 -1.09,0.17 -1.45,0.51 -0.36,0.35 -0.56,0.83 -0.61,1.44 l 3.84,-0.02 z m 8.31,-0.09 0,3.97 -1.08,0 0,-3.92 c 0,-0.63 -0.13,-1.09 -0.37,-1.4 -0.24,-0.31 -0.61,-0.46 -1.09,-0.46 -0.58,0 -1.04,0.18 -1.38,0.55 -0.34,0.37 -0.51,0.88 -0.51,1.53 l 0,3.7 -1.07,0 0,-6.56 1.07,0 0,1.01 c 0.26,-0.39 0.57,-0.69 0.92,-0.88 0.35,-0.19 0.75,-0.29 1.21,-0.29 0.75,0 1.32,0.23 1.71,0.7 0.39,0.46 0.59,1.14 0.59,2.05 z m 6.87,-2.34 0,1.01 c -0.32,-0.17 -0.62,-0.3 -0.93,-0.39 -0.3,-0.08 -0.6,-0.12 -0.92,-0.12 -0.71,0 -1.25,0.22 -1.64,0.66 -0.38,0.44 -0.58,1.07 -0.58,1.87 0,0.8 0.2,1.42 0.58,1.87 0.39,0.44 0.93,0.66 1.64,0.66 0.32,0 0.62,-0.04 0.92,-0.13 0.31,-0.08 0.61,-0.2 0.93,-0.37 l 0,1 c -0.31,0.14 -0.62,0.24 -0.94,0.31 -0.32,0.08 -0.67,0.11 -1.03,0.11 -0.99,0 -1.78,-0.31 -2.36,-0.93 -0.59,-0.62 -0.88,-1.46 -0.88,-2.52 0,-1.06 0.3,-1.9 0.89,-2.52 0.58,-0.61 1.39,-0.92 2.43,-0.92 0.32,0 0.64,0.04 0.96,0.1 0.31,0.07 0.62,0.17 0.93,0.31 z m 7.48,2.76 0,0.52 -4.96,0 c 0.05,0.75 0.27,1.32 0.68,1.7 0.4,0.39 0.95,0.58 1.66,0.58 0.42,0 0.82,-0.05 1.21,-0.15 0.39,-0.1 0.78,-0.25 1.16,-0.46 l 0,1.03 c -0.39,0.16 -0.79,0.28 -1.2,0.37 -0.4,0.09 -0.82,0.13 -1.23,0.13 -1.04,0 -1.87,-0.3 -2.49,-0.91 -0.61,-0.61 -0.92,-1.44 -0.92,-2.48 0,-1.07 0.29,-1.92 0.88,-2.55 0.58,-0.63 1.36,-0.95 2.34,-0.95 0.89,0 1.59,0.29 2.1,0.85 0.52,0.57 0.77,1.34 0.77,2.32 z m -1.07,-0.33 c -0.01,-0.58 -0.18,-1.05 -0.5,-1.4 -0.33,-0.36 -0.75,-0.53 -1.28,-0.53 -0.61,0 -1.09,0.17 -1.45,0.51 -0.36,0.35 -0.57,0.83 -0.62,1.44 l 3.85,-0.02 z m 9.98,-5.25 0,0.91 -1.04,0 c -0.38,0 -0.65,0.08 -0.8,0.24 -0.15,0.15 -0.23,0.43 -0.23,0.84 l 0,0.58 1.78,0 0,0.84 -1.78,0 0,5.72 -1.08,0 0,-5.72 -1.03,0 0,-0.84 1.03,0 0,-0.46 c 0,-0.72 0.17,-1.26 0.51,-1.6 0.34,-0.34 0.88,-0.51 1.62,-0.51 l 1.02,0 z m 3.44,3.32 c -0.57,0 -1.03,0.22 -1.37,0.68 -0.34,0.45 -0.51,1.07 -0.51,1.85 0,0.79 0.17,1.41 0.5,1.86 0.34,0.45 0.8,0.67 1.38,0.67 0.57,0 1.03,-0.23 1.37,-0.68 0.33,-0.45 0.5,-1.07 0.5,-1.85 0,-0.77 -0.17,-1.39 -0.5,-1.85 -0.34,-0.45 -0.8,-0.68 -1.37,-0.68 z m 0,-0.91 c 0.94,0 1.67,0.31 2.21,0.92 0.54,0.6 0.8,1.45 0.8,2.52 0,1.07 -0.26,1.92 -0.8,2.53 -0.54,0.61 -1.27,0.92 -2.21,0.92 -0.94,0 -1.68,-0.31 -2.21,-0.92 -0.54,-0.61 -0.81,-1.46 -0.81,-2.53 0,-1.07 0.27,-1.92 0.81,-2.52 0.53,-0.61 1.27,-0.92 2.21,-0.92 z m 8.61,1.16 c -0.13,-0.07 -0.26,-0.11 -0.4,-0.15 -0.14,-0.04 -0.3,-0.06 -0.48,-0.06 -0.6,0 -1.07,0.2 -1.4,0.6 -0.33,0.39 -0.49,0.97 -0.49,1.72 l 0,3.45 -1.08,0 0,-6.56 1.08,0 0,1.01 c 0.23,-0.39 0.53,-0.69 0.89,-0.88 0.37,-0.19 0.81,-0.29 1.33,-0.29 0.07,0 0.15,0.01 0.24,0.02 0.09,0.01 0.19,0.02 0.29,0.04 l 0.02,1.1 z"
                         inkscape:connector-curvature="0" />
                      <path
                         id="path5018"
                         style="fill:#000000;fill-opacity:1;fill-rule:nonzero;stroke:none"
                         d="m 377.24,135.83 0,1.01 c -0.32,-0.18 -0.62,-0.31 -0.93,-0.39 -0.3,-0.08 -0.61,-0.12 -0.92,-0.12 -0.71,0 -1.25,0.22 -1.64,0.66 -0.38,0.44 -0.58,1.07 -0.58,1.87 0,0.8 0.2,1.42 0.58,1.86 0.39,0.45 0.93,0.67 1.64,0.67 0.31,0 0.62,-0.04 0.92,-0.13 0.31,-0.08 0.61,-0.2 0.93,-0.37 l 0,1 c -0.31,0.13 -0.62,0.24 -0.94,0.31 -0.33,0.07 -0.67,0.11 -1.03,0.11 -0.99,0 -1.78,-0.31 -2.36,-0.93 -0.59,-0.62 -0.88,-1.46 -0.88,-2.52 0,-1.07 0.3,-1.9 0.89,-2.52 0.58,-0.61 1.39,-0.92 2.42,-0.92 0.33,0 0.65,0.03 0.97,0.1 0.31,0.07 0.62,0.17 0.93,0.31 z m 1.75,3.71 0,-3.96 1.08,0 0,3.93 c 0,0.62 0.12,1.08 0.36,1.39 0.25,0.32 0.61,0.47 1.09,0.47 0.58,0 1.04,-0.18 1.38,-0.55 0.34,-0.37 0.51,-0.88 0.51,-1.53 l 0,-3.71 1.08,0 0,6.56 -1.08,0 0,-1.02 c -0.26,0.41 -0.56,0.71 -0.91,0.9 -0.34,0.19 -0.74,0.29 -1.2,0.29 -0.76,0 -1.33,-0.23 -1.72,-0.7 -0.4,-0.47 -0.59,-1.16 -0.59,-2.07 z m 8.76,1.61 0,3.49 -1.08,0 0,-9.06 1.08,0 0,1 c 0.23,-0.4 0.52,-0.69 0.86,-0.88 0.34,-0.19 0.76,-0.28 1.23,-0.28 0.81,0 1.46,0.32 1.96,0.95 0.5,0.63 0.75,1.46 0.75,2.49 0,1.03 -0.25,1.86 -0.75,2.5 -0.5,0.63 -1.15,0.95 -1.96,0.95 -0.47,0 -0.89,-0.1 -1.23,-0.29 -0.34,-0.19 -0.63,-0.48 -0.86,-0.87 z m 3.67,-2.29 c 0,-0.79 -0.16,-1.41 -0.49,-1.86 -0.33,-0.45 -0.77,-0.67 -1.34,-0.67 -0.57,0 -1.02,0.22 -1.35,0.67 -0.32,0.45 -0.49,1.07 -0.49,1.86 0,0.79 0.17,1.41 0.49,1.86 0.33,0.46 0.78,0.68 1.35,0.68 0.57,0 1.01,-0.22 1.34,-0.68 0.33,-0.45 0.49,-1.07 0.49,-1.86 z m 6.72,-5.85 1.07,0 0,9.13 -1.07,0 0,-9.13 z m 5.88,3.32 c -0.58,0 -1.03,0.22 -1.37,0.68 -0.34,0.45 -0.51,1.07 -0.51,1.85 0,0.79 0.17,1.41 0.5,1.86 0.33,0.44 0.79,0.67 1.38,0.67 0.57,0 1.03,-0.23 1.36,-0.68 0.34,-0.45 0.51,-1.07 0.51,-1.85 0,-0.77 -0.17,-1.39 -0.51,-1.85 -0.33,-0.45 -0.79,-0.68 -1.36,-0.68 z m 0,-0.91 c 0.93,0 1.67,0.3 2.21,0.91 0.53,0.61 0.8,1.45 0.8,2.53 0,1.07 -0.27,1.91 -0.8,2.53 -0.54,0.61 -1.28,0.92 -2.21,0.92 -0.94,0 -1.68,-0.31 -2.21,-0.92 -0.54,-0.62 -0.81,-1.46 -0.81,-2.53 0,-1.08 0.27,-1.92 0.81,-2.53 0.53,-0.61 1.27,-0.91 2.21,-0.91 z m 9.53,0.41 0,1.01 c -0.32,-0.18 -0.62,-0.31 -0.93,-0.39 -0.3,-0.08 -0.61,-0.12 -0.92,-0.12 -0.71,0 -1.25,0.22 -1.64,0.66 -0.38,0.44 -0.58,1.07 -0.58,1.87 0,0.8 0.2,1.42 0.58,1.86 0.39,0.45 0.93,0.67 1.64,0.67 0.31,0 0.62,-0.04 0.92,-0.13 0.31,-0.08 0.61,-0.2 0.93,-0.37 l 0,1 c -0.31,0.13 -0.62,0.24 -0.94,0.31 -0.32,0.07 -0.67,0.11 -1.03,0.11 -0.99,0 -1.78,-0.31 -2.36,-0.93 -0.59,-0.62 -0.88,-1.46 -0.88,-2.52 0,-1.07 0.3,-1.9 0.89,-2.52 0.58,-0.61 1.39,-0.92 2.43,-0.92 0.32,0 0.64,0.03 0.96,0.1 0.31,0.07 0.62,0.17 0.93,0.31 z m 4.84,3.01 c -0.86,0 -1.46,0.1 -1.8,0.3 -0.34,0.2 -0.51,0.54 -0.51,1.01 0,0.39 0.13,0.69 0.38,0.92 0.26,0.22 0.6,0.33 1.03,0.33 0.6,0 1.08,-0.21 1.44,-0.63 0.36,-0.42 0.54,-0.99 0.54,-1.69 l 0,-0.24 -1.08,0 z m 2.16,-0.45 0,3.75 -1.08,0 0,-1 c -0.25,0.39 -0.56,0.69 -0.92,0.88 -0.36,0.19 -0.81,0.29 -1.34,0.29 -0.68,0 -1.22,-0.19 -1.61,-0.57 -0.4,-0.38 -0.6,-0.88 -0.6,-1.51 0,-0.74 0.25,-1.29 0.75,-1.67 0.49,-0.37 1.23,-0.56 2.21,-0.56 l 1.51,0 0,-0.11 c 0,-0.5 -0.16,-0.89 -0.49,-1.16 -0.33,-0.27 -0.78,-0.4 -1.37,-0.4 -0.37,0 -0.74,0.04 -1.1,0.14 -0.36,0.09 -0.7,0.23 -1.02,0.4 l 0,-1 c 0.39,-0.15 0.78,-0.27 1.15,-0.34 0.37,-0.07 0.73,-0.11 1.08,-0.11 0.95,0 1.66,0.24 2.13,0.73 0.47,0.49 0.7,1.24 0.7,2.24 z m 3.29,-4.67 0,1.86 2.22,0 0,0.84 -2.22,0 0,3.56 c 0,0.53 0.07,0.87 0.22,1.03 0.15,0.15 0.44,0.22 0.89,0.22 l 1.11,0 0,0.91 -1.11,0 c -0.83,0 -1.41,-0.16 -1.73,-0.47 -0.31,-0.31 -0.47,-0.88 -0.47,-1.69 l 0,-3.56 -0.78,0 0,-0.84 0.78,0 0,-1.86 1.09,0 z m 3.63,1.86 1.08,0 0,6.56 -1.08,0 0,-6.56 z m 0,-2.57 1.08,0 0,1.38 -1.08,0 0,-1.38 z m 5.88,3.32 c -0.57,0 -1.03,0.22 -1.37,0.68 -0.34,0.45 -0.51,1.07 -0.51,1.85 0,0.79 0.17,1.41 0.5,1.86 0.34,0.44 0.8,0.67 1.38,0.67 0.57,0 1.03,-0.23 1.37,-0.68 0.33,-0.45 0.5,-1.07 0.5,-1.85 0,-0.77 -0.17,-1.39 -0.5,-1.85 -0.34,-0.45 -0.8,-0.68 -1.37,-0.68 z m 0,-0.91 c 0.94,0 1.67,0.3 2.21,0.91 0.54,0.61 0.8,1.45 0.8,2.53 0,1.07 -0.26,1.91 -0.8,2.53 -0.54,0.61 -1.27,0.92 -2.21,0.92 -0.94,0 -1.68,-0.31 -2.21,-0.92 -0.54,-0.62 -0.81,-1.46 -0.81,-2.53 0,-1.08 0.27,-1.92 0.81,-2.53 0.53,-0.61 1.27,-0.91 2.21,-0.91 z m 10.26,2.75 0,3.97 -1.08,0 0,-3.92 c 0,-0.63 -0.12,-1.09 -0.36,-1.4 -0.25,-0.31 -0.61,-0.46 -1.09,-0.46 -0.58,0 -1.04,0.18 -1.38,0.55 -0.34,0.37 -0.51,0.88 -0.51,1.53 l 0,3.7 -1.08,0 0,-6.56 1.08,0 0,1.01 c 0.26,-0.39 0.57,-0.69 0.91,-0.88 0.35,-0.19 0.76,-0.29 1.22,-0.29 0.75,0 1.32,0.23 1.71,0.7 0.39,0.46 0.58,1.14 0.58,2.05 z"
                         inkscape:connector-curvature="0" />
                      <path
                         id="path5020"
                         style="fill:#000000;fill-opacity:1;fill-rule:nonzero;stroke:none"
                         d="m 378.22,223.08 0,1.25 c -0.41,-0.38 -0.83,-0.66 -1.28,-0.84 -0.45,-0.18 -0.93,-0.27 -1.44,-0.27 -1,0 -1.76,0.3 -2.3,0.92 -0.53,0.61 -0.79,1.5 -0.79,2.65 0,1.15 0.26,2.03 0.79,2.65 0.54,0.61 1.3,0.92 2.3,0.92 0.51,0 0.99,-0.1 1.44,-0.28 0.45,-0.19 0.87,-0.47 1.28,-0.83 l 0,1.23 c -0.42,0.28 -0.86,0.49 -1.32,0.64 -0.46,0.14 -0.95,0.21 -1.46,0.21 -1.33,0 -2.38,-0.41 -3.14,-1.22 -0.76,-0.82 -1.14,-1.92 -1.14,-3.32 0,-1.4 0.38,-2.51 1.14,-3.32 0.76,-0.82 1.81,-1.22 3.14,-1.22 0.52,0 1.01,0.07 1.48,0.21 0.46,0.14 0.89,0.35 1.3,0.62 z m 1.66,5.48 0,-3.97 1.08,0 0,3.94 c 0,0.61 0.12,1.08 0.37,1.39 0.24,0.31 0.6,0.47 1.08,0.47 0.58,0 1.05,-0.19 1.38,-0.56 0.34,-0.37 0.51,-0.87 0.51,-1.52 l 0,-3.72 1.08,0 0,6.56 -1.08,0 0,-1.01 c -0.26,0.4 -0.56,0.7 -0.9,0.9 -0.35,0.19 -0.75,0.29 -1.21,0.29 -0.76,0 -1.33,-0.24 -1.72,-0.71 -0.39,-0.47 -0.59,-1.15 -0.59,-2.06 z m 8.76,1.61 0,3.48 -1.08,0 0,-9.06 1.08,0 0,1 c 0.23,-0.39 0.52,-0.69 0.86,-0.87 0.34,-0.19 0.76,-0.28 1.24,-0.28 0.8,0 1.45,0.31 1.95,0.94 0.5,0.63 0.75,1.46 0.75,2.49 0,1.03 -0.25,1.87 -0.75,2.5 -0.5,0.64 -1.15,0.96 -1.95,0.96 -0.48,0 -0.9,-0.1 -1.24,-0.29 -0.34,-0.2 -0.63,-0.48 -0.86,-0.87 z m 3.67,-2.3 c 0,-0.79 -0.16,-1.41 -0.49,-1.86 -0.33,-0.44 -0.77,-0.67 -1.33,-0.67 -0.58,0 -1.03,0.23 -1.36,0.67 -0.32,0.45 -0.49,1.07 -0.49,1.86 0,0.79 0.17,1.42 0.49,1.87 0.33,0.45 0.78,0.68 1.36,0.68 0.56,0 1,-0.23 1.33,-0.68 0.33,-0.45 0.49,-1.08 0.49,-1.87 z m 6.72,-5.84 1.07,0 0,9.12 -1.07,0 0,-9.12 z m 5.88,3.31 c -0.58,0 -1.03,0.23 -1.37,0.68 -0.34,0.45 -0.51,1.07 -0.51,1.85 0,0.79 0.17,1.41 0.5,1.86 0.34,0.45 0.79,0.67 1.38,0.67 0.57,0 1.03,-0.22 1.36,-0.68 0.34,-0.45 0.51,-1.07 0.51,-1.85 0,-0.77 -0.17,-1.38 -0.51,-1.84 -0.33,-0.46 -0.79,-0.69 -1.36,-0.69 z m 0,-0.9 c 0.93,0 1.67,0.3 2.21,0.91 0.53,0.61 0.8,1.45 0.8,2.52 0,1.08 -0.27,1.92 -0.8,2.53 -0.54,0.62 -1.28,0.93 -2.21,0.93 -0.94,0 -1.68,-0.31 -2.21,-0.93 -0.54,-0.61 -0.81,-1.45 -0.81,-2.53 0,-1.07 0.27,-1.91 0.81,-2.52 0.53,-0.61 1.27,-0.91 2.21,-0.91 z m 9.53,0.4 0,1.02 c -0.32,-0.18 -0.62,-0.31 -0.93,-0.39 -0.3,-0.09 -0.6,-0.13 -0.92,-0.13 -0.71,0 -1.25,0.22 -1.64,0.67 -0.38,0.44 -0.58,1.06 -0.58,1.86 0,0.81 0.2,1.43 0.58,1.87 0.39,0.44 0.93,0.66 1.64,0.66 0.32,0 0.62,-0.04 0.92,-0.12 0.31,-0.08 0.61,-0.21 0.93,-0.38 l 0,1 c -0.31,0.14 -0.62,0.24 -0.94,0.32 -0.32,0.07 -0.67,0.11 -1.03,0.11 -0.99,0 -1.78,-0.31 -2.36,-0.93 -0.58,-0.62 -0.88,-1.46 -0.88,-2.53 0,-1.06 0.3,-1.9 0.89,-2.51 0.58,-0.62 1.39,-0.92 2.43,-0.92 0.32,0 0.64,0.03 0.96,0.1 0.31,0.06 0.62,0.17 0.93,0.3 z m 4.84,3.02 c -0.86,0 -1.46,0.1 -1.8,0.29 -0.34,0.2 -0.51,0.54 -0.51,1.02 0,0.39 0.13,0.69 0.38,0.91 0.26,0.23 0.6,0.34 1.03,0.34 0.6,0 1.08,-0.21 1.44,-0.63 0.36,-0.42 0.54,-0.99 0.54,-1.7 l 0,-0.23 -1.08,0 z m 2.16,-0.46 0,3.75 -1.08,0 0,-1 c -0.25,0.4 -0.55,0.69 -0.92,0.89 -0.36,0.19 -0.81,0.29 -1.34,0.29 -0.68,0 -1.22,-0.19 -1.61,-0.57 -0.4,-0.38 -0.6,-0.89 -0.6,-1.51 0,-0.74 0.25,-1.3 0.75,-1.67 0.49,-0.38 1.23,-0.57 2.21,-0.57 l 1.51,0 0,-0.11 c 0,-0.5 -0.16,-0.88 -0.49,-1.15 -0.33,-0.27 -0.78,-0.41 -1.37,-0.41 -0.37,0 -0.74,0.05 -1.1,0.14 -0.36,0.1 -0.7,0.23 -1.02,0.41 l 0,-1 c 0.39,-0.16 0.78,-0.27 1.15,-0.35 0.37,-0.07 0.73,-0.1 1.08,-0.1 0.95,0 1.66,0.24 2.13,0.73 0.47,0.49 0.7,1.23 0.7,2.23 z m 3.29,-4.67 0,1.86 2.22,0 0,0.85 -2.22,0 0,3.56 c 0,0.53 0.07,0.87 0.22,1.02 0.15,0.15 0.44,0.23 0.89,0.23 l 1.11,0 0,0.9 -1.11,0 c -0.83,0 -1.41,-0.15 -1.73,-0.46 -0.31,-0.32 -0.47,-0.88 -0.47,-1.69 l 0,-3.56 -0.78,0 0,-0.85 0.78,0 0,-1.86 1.09,0 z m 3.63,1.86 1.08,0 0,6.56 -1.08,0 0,-6.56 z m 0,-2.56 1.08,0 0,1.37 -1.08,0 0,-1.37 z m 5.88,3.31 c -0.57,0 -1.03,0.23 -1.37,0.68 -0.34,0.45 -0.51,1.07 -0.51,1.85 0,0.79 0.17,1.41 0.5,1.86 0.34,0.45 0.8,0.67 1.38,0.67 0.57,0 1.03,-0.22 1.37,-0.68 0.33,-0.45 0.5,-1.07 0.5,-1.85 0,-0.77 -0.17,-1.38 -0.5,-1.84 -0.34,-0.46 -0.8,-0.69 -1.37,-0.69 z m 0,-0.9 c 0.94,0 1.67,0.3 2.21,0.91 0.54,0.61 0.8,1.45 0.8,2.52 0,1.08 -0.26,1.92 -0.8,2.53 -0.54,0.62 -1.27,0.93 -2.21,0.93 -0.94,0 -1.68,-0.31 -2.21,-0.93 -0.54,-0.61 -0.81,-1.45 -0.81,-2.53 0,-1.07 0.27,-1.91 0.81,-2.52 0.53,-0.61 1.27,-0.91 2.21,-0.91 z m 10.26,2.75 0,3.96 -1.08,0 0,-3.92 c 0,-0.62 -0.12,-1.09 -0.36,-1.4 -0.25,-0.3 -0.61,-0.46 -1.09,-0.46 -0.58,0 -1.04,0.19 -1.38,0.56 -0.34,0.37 -0.51,0.88 -0.51,1.52 l 0,3.7 -1.08,0 0,-6.56 1.08,0 0,1.02 c 0.26,-0.4 0.57,-0.69 0.92,-0.89 0.34,-0.19 0.75,-0.28 1.21,-0.28 0.75,0 1.32,0.23 1.71,0.69 0.39,0.46 0.58,1.15 0.58,2.06 z"
                         inkscape:connector-curvature="0" />
                      <path
                         id="path5022"
                         style="fill:#000000;fill-opacity:1;fill-rule:nonzero;stroke:none"
                         d="m 550.72,223.08 0,1.25 c -0.41,-0.38 -0.83,-0.66 -1.28,-0.84 -0.45,-0.18 -0.93,-0.27 -1.44,-0.27 -1,0 -1.76,0.3 -2.3,0.92 -0.53,0.61 -0.79,1.5 -0.79,2.65 0,1.15 0.26,2.03 0.79,2.65 0.54,0.61 1.3,0.92 2.3,0.92 0.51,0 0.99,-0.1 1.44,-0.28 0.45,-0.19 0.87,-0.47 1.28,-0.83 l 0,1.23 c -0.42,0.28 -0.86,0.49 -1.32,0.64 -0.46,0.14 -0.95,0.21 -1.46,0.21 -1.33,0 -2.38,-0.41 -3.14,-1.22 -0.76,-0.82 -1.14,-1.92 -1.14,-3.32 0,-1.4 0.38,-2.51 1.14,-3.32 0.76,-0.82 1.81,-1.22 3.14,-1.22 0.52,0 1.01,0.07 1.48,0.21 0.46,0.14 0.89,0.35 1.3,0.62 z m 1.66,5.48 0,-3.97 1.08,0 0,3.94 c 0,0.61 0.12,1.08 0.37,1.39 0.24,0.31 0.6,0.47 1.08,0.47 0.58,0 1.05,-0.19 1.38,-0.56 0.34,-0.37 0.51,-0.87 0.51,-1.52 l 0,-3.72 1.08,0 0,6.56 -1.08,0 0,-1.01 c -0.26,0.4 -0.56,0.7 -0.9,0.9 -0.35,0.19 -0.75,0.29 -1.21,0.29 -0.76,0 -1.33,-0.24 -1.72,-0.71 -0.39,-0.47 -0.59,-1.15 -0.59,-2.06 z m 8.76,1.61 0,3.48 -1.08,0 0,-9.06 1.08,0 0,1 c 0.23,-0.39 0.52,-0.69 0.86,-0.87 0.34,-0.19 0.76,-0.28 1.24,-0.28 0.8,0 1.45,0.31 1.95,0.94 0.5,0.63 0.75,1.46 0.75,2.49 0,1.03 -0.25,1.87 -0.75,2.5 -0.5,0.64 -1.15,0.96 -1.95,0.96 -0.48,0 -0.9,-0.1 -1.24,-0.29 -0.34,-0.2 -0.63,-0.48 -0.86,-0.87 z m 3.67,-2.3 c 0,-0.79 -0.16,-1.41 -0.49,-1.86 -0.33,-0.44 -0.77,-0.67 -1.33,-0.67 -0.58,0 -1.03,0.23 -1.36,0.67 -0.32,0.45 -0.49,1.07 -0.49,1.86 0,0.79 0.17,1.42 0.49,1.87 0.33,0.45 0.78,0.68 1.36,0.68 0.56,0 1,-0.23 1.33,-0.68 0.33,-0.45 0.49,-1.08 0.49,-1.87 z m 6.72,-5.84 1.07,0 0,9.12 -1.07,0 0,-9.12 z m 5.88,3.31 c -0.58,0 -1.03,0.23 -1.37,0.68 -0.34,0.45 -0.51,1.07 -0.51,1.85 0,0.79 0.17,1.41 0.5,1.86 0.34,0.45 0.79,0.67 1.38,0.67 0.57,0 1.03,-0.22 1.36,-0.68 0.34,-0.45 0.51,-1.07 0.51,-1.85 0,-0.77 -0.17,-1.38 -0.51,-1.84 -0.33,-0.46 -0.79,-0.69 -1.36,-0.69 z m 0,-0.9 c 0.93,0 1.67,0.3 2.21,0.91 0.53,0.61 0.8,1.45 0.8,2.52 0,1.08 -0.27,1.92 -0.8,2.53 -0.54,0.62 -1.28,0.93 -2.21,0.93 -0.94,0 -1.68,-0.31 -2.21,-0.93 -0.54,-0.61 -0.81,-1.45 -0.81,-2.53 0,-1.07 0.27,-1.91 0.81,-2.52 0.53,-0.61 1.27,-0.91 2.21,-0.91 z m 9.53,0.4 0,1.02 c -0.32,-0.18 -0.62,-0.31 -0.93,-0.39 -0.3,-0.09 -0.6,-0.13 -0.92,-0.13 -0.71,0 -1.25,0.22 -1.64,0.67 -0.38,0.44 -0.58,1.06 -0.58,1.86 0,0.81 0.2,1.43 0.58,1.87 0.39,0.44 0.93,0.66 1.64,0.66 0.32,0 0.62,-0.04 0.92,-0.12 0.31,-0.08 0.61,-0.21 0.93,-0.38 l 0,1 c -0.31,0.14 -0.62,0.24 -0.94,0.32 -0.32,0.07 -0.67,0.11 -1.03,0.11 -0.99,0 -1.78,-0.31 -2.36,-0.93 -0.58,-0.62 -0.88,-1.46 -0.88,-2.53 0,-1.06 0.3,-1.9 0.89,-2.51 0.58,-0.62 1.39,-0.92 2.43,-0.92 0.32,0 0.64,0.03 0.96,0.1 0.31,0.06 0.62,0.17 0.93,0.3 z m 4.84,3.02 c -0.86,0 -1.46,0.1 -1.8,0.29 -0.34,0.2 -0.51,0.54 -0.51,1.02 0,0.39 0.13,0.69 0.38,0.91 0.26,0.23 0.6,0.34 1.03,0.34 0.6,0 1.08,-0.21 1.44,-0.63 0.36,-0.42 0.54,-0.99 0.54,-1.7 l 0,-0.23 -1.08,0 z m 2.16,-0.46 0,3.75 -1.08,0 0,-1 c -0.25,0.4 -0.55,0.69 -0.92,0.89 -0.36,0.19 -0.81,0.29 -1.34,0.29 -0.68,0 -1.22,-0.19 -1.61,-0.57 -0.4,-0.38 -0.6,-0.89 -0.6,-1.51 0,-0.74 0.25,-1.3 0.75,-1.67 0.49,-0.38 1.23,-0.57 2.21,-0.57 l 1.51,0 0,-0.11 c 0,-0.5 -0.16,-0.88 -0.49,-1.15 -0.33,-0.27 -0.78,-0.41 -1.37,-0.41 -0.37,0 -0.74,0.05 -1.1,0.14 -0.36,0.1 -0.7,0.23 -1.02,0.41 l 0,-1 c 0.39,-0.16 0.78,-0.27 1.15,-0.35 0.37,-0.07 0.73,-0.1 1.08,-0.1 0.95,0 1.66,0.24 2.13,0.73 0.47,0.49 0.7,1.23 0.7,2.23 z m 3.29,-4.67 0,1.86 2.22,0 0,0.85 -2.22,0 0,3.56 c 0,0.53 0.07,0.87 0.22,1.02 0.15,0.15 0.44,0.23 0.89,0.23 l 1.11,0 0,0.9 -1.11,0 c -0.83,0 -1.41,-0.15 -1.73,-0.46 -0.31,-0.32 -0.47,-0.88 -0.47,-1.69 l 0,-3.56 -0.78,0 0,-0.85 0.78,0 0,-1.86 1.09,0 z m 3.63,1.86 1.08,0 0,6.56 -1.08,0 0,-6.56 z m 0,-2.56 1.08,0 0,1.37 -1.08,0 0,-1.37 z m 5.88,3.31 c -0.57,0 -1.03,0.23 -1.37,0.68 -0.34,0.45 -0.51,1.07 -0.51,1.85 0,0.79 0.17,1.41 0.5,1.86 0.34,0.45 0.8,0.67 1.38,0.67 0.57,0 1.03,-0.22 1.37,-0.68 0.33,-0.45 0.5,-1.07 0.5,-1.85 0,-0.77 -0.17,-1.38 -0.5,-1.84 -0.34,-0.46 -0.8,-0.69 -1.37,-0.69 z m 0,-0.9 c 0.94,0 1.67,0.3 2.21,0.91 0.54,0.61 0.8,1.45 0.8,2.52 0,1.08 -0.26,1.92 -0.8,2.53 -0.54,0.62 -1.27,0.93 -2.21,0.93 -0.94,0 -1.68,-0.31 -2.21,-0.93 -0.54,-0.61 -0.81,-1.45 -0.81,-2.53 0,-1.07 0.27,-1.91 0.81,-2.52 0.53,-0.61 1.27,-0.91 2.21,-0.91 z m 10.26,2.75 0,3.96 -1.08,0 0,-3.92 c 0,-0.62 -0.12,-1.09 -0.36,-1.4 -0.25,-0.3 -0.61,-0.46 -1.09,-0.46 -0.58,0 -1.04,0.19 -1.38,0.56 -0.34,0.37 -0.51,0.88 -0.51,1.52 l 0,3.7 -1.08,0 0,-6.56 1.08,0 0,1.02 c 0.26,-0.4 0.57,-0.69 0.92,-0.89 0.34,-0.19 0.75,-0.28 1.21,-0.28 0.75,0 1.32,0.23 1.71,0.69 0.39,0.46 0.58,1.15 0.58,2.06 z"
                         inkscape:connector-curvature="0" />
                      <path
                         id="path5024"
                         style="fill:#000000;fill-opacity:1;fill-rule:nonzero;stroke:none"
                         d="m 207.3,323.04 c 0.25,0.1 0.49,0.29 0.73,0.57 0.24,0.28 0.49,0.66 0.74,1.15 l 1.2,2.39 -1.28,0 -1.11,-2.25 c -0.29,-0.58 -0.57,-0.97 -0.84,-1.16 -0.28,-0.19 -0.65,-0.29 -1.11,-0.29 l -1.3,0 0,3.7 -1.19,0 0,-8.75 2.67,0 c 1,0 1.75,0.21 2.25,0.63 0.49,0.42 0.74,1.05 0.74,1.89 0,0.55 -0.13,1.01 -0.38,1.37 -0.26,0.37 -0.63,0.62 -1.12,0.75 z m -2.97,-3.67 0,3.11 1.48,0 c 0.58,0 1.01,-0.13 1.3,-0.4 0.29,-0.26 0.44,-0.65 0.44,-1.16 0,-0.51 -0.15,-0.9 -0.44,-1.16 -0.29,-0.26 -0.72,-0.39 -1.3,-0.39 l -1.48,0 z m 13.12,6.53 0,-2.34 -1.94,0 0,-0.98 3.11,0 0,3.76 c -0.46,0.32 -0.96,0.57 -1.51,0.74 -0.54,0.16 -1.13,0.25 -1.76,0.25 -1.37,0 -2.44,-0.4 -3.21,-1.21 -0.78,-0.8 -1.16,-1.91 -1.16,-3.33 0,-1.43 0.38,-2.55 1.16,-3.35 0.77,-0.79 1.84,-1.19 3.21,-1.19 0.57,0 1.11,0.07 1.62,0.21 0.52,0.14 0.99,0.35 1.43,0.62 l 0,1.26 c -0.44,-0.37 -0.9,-0.65 -1.4,-0.84 -0.49,-0.19 -1.01,-0.28 -1.55,-0.28 -1.07,0 -1.88,0.3 -2.42,0.9 -0.53,0.59 -0.8,1.49 -0.8,2.67 0,1.18 0.27,2.07 0.8,2.67 0.54,0.6 1.35,0.9 2.42,0.9 0.41,0 0.79,-0.04 1.12,-0.11 0.32,-0.07 0.62,-0.19 0.88,-0.35 z m 4.52,-2.92 0,3.21 1.9,0 c 0.64,0 1.11,-0.14 1.42,-0.4 0.3,-0.27 0.46,-0.67 0.46,-1.21 0,-0.56 -0.16,-0.96 -0.46,-1.21 -0.31,-0.26 -0.78,-0.39 -1.42,-0.39 l -1.9,0 z m 0,-3.61 0,2.64 1.75,0 c 0.58,0 1.01,-0.11 1.29,-0.32 0.28,-0.22 0.42,-0.55 0.42,-0.99 0,-0.45 -0.14,-0.78 -0.42,-1 -0.28,-0.22 -0.71,-0.33 -1.29,-0.33 l -1.75,0 z m -1.19,-0.97 3.03,0 c 0.91,0 1.6,0.19 2.09,0.57 0.48,0.37 0.72,0.9 0.72,1.59 0,0.54 -0.12,0.97 -0.37,1.29 -0.25,0.32 -0.62,0.51 -1.1,0.59 0.59,0.12 1.04,0.38 1.36,0.78 0.33,0.39 0.49,0.89 0.49,1.48 0,0.78 -0.27,1.39 -0.8,1.81 -0.53,0.43 -1.29,0.64 -2.28,0.64 l -3.14,0 0,-8.75 z m 12,2.19 1.08,0 0,6.56 -1.08,0 0,-6.56 z m 0,-2.56 1.08,0 0,1.37 -1.08,0 0,-1.37 z m 8.44,3.83 c 0.27,-0.49 0.6,-0.85 0.97,-1.08 0.38,-0.23 0.82,-0.34 1.33,-0.34 0.69,0 1.21,0.24 1.58,0.71 0.37,0.48 0.56,1.16 0.56,2.04 l 0,3.96 -1.08,0 0,-3.92 c 0,-0.63 -0.11,-1.1 -0.33,-1.4 -0.23,-0.31 -0.57,-0.46 -1.03,-0.46 -0.56,0 -1,0.19 -1.33,0.56 -0.32,0.37 -0.48,0.88 -0.48,1.52 l 0,3.7 -1.08,0 0,-3.92 c 0,-0.63 -0.11,-1.1 -0.33,-1.4 -0.23,-0.31 -0.58,-0.46 -1.04,-0.46 -0.56,0 -0.99,0.19 -1.32,0.56 -0.32,0.37 -0.48,0.88 -0.48,1.52 l 0,3.7 -1.08,0 0,-6.56 1.08,0 0,1.02 c 0.25,-0.4 0.55,-0.69 0.89,-0.89 0.34,-0.19 0.75,-0.28 1.22,-0.28 0.48,0 0.88,0.12 1.22,0.35 0.33,0.24 0.58,0.6 0.73,1.07 z m 9.57,2 c -0.87,0 -1.47,0.1 -1.81,0.29 -0.34,0.2 -0.51,0.54 -0.51,1.02 0,0.39 0.13,0.69 0.39,0.91 0.25,0.23 0.59,0.34 1.02,0.34 0.6,0 1.09,-0.21 1.45,-0.63 0.35,-0.42 0.53,-0.99 0.53,-1.7 l 0,-0.23 -1.07,0 z m 2.15,-0.46 0,3.75 -1.08,0 0,-1 c -0.25,0.4 -0.55,0.69 -0.92,0.89 -0.36,0.19 -0.81,0.29 -1.34,0.29 -0.68,0 -1.21,-0.19 -1.61,-0.57 -0.4,-0.38 -0.59,-0.89 -0.59,-1.51 0,-0.74 0.24,-1.3 0.74,-1.67 0.49,-0.38 1.23,-0.57 2.21,-0.57 l 1.51,0 0,-0.11 c 0,-0.5 -0.16,-0.88 -0.49,-1.15 -0.33,-0.27 -0.78,-0.41 -1.37,-0.41 -0.37,0 -0.74,0.05 -1.1,0.14 -0.36,0.1 -0.7,0.23 -1.02,0.41 l 0,-1 c 0.4,-0.16 0.78,-0.27 1.15,-0.35 0.37,-0.07 0.73,-0.1 1.08,-0.1 0.95,0 1.66,0.24 2.13,0.73 0.47,0.49 0.7,1.23 0.7,2.23 z m 6.54,0.39 c 0,-0.78 -0.16,-1.38 -0.48,-1.81 -0.32,-0.42 -0.78,-0.64 -1.36,-0.64 -0.57,0 -1.02,0.22 -1.34,0.64 -0.33,0.43 -0.49,1.03 -0.49,1.81 0,0.79 0.16,1.39 0.49,1.82 0.32,0.42 0.77,0.64 1.34,0.64 0.58,0 1.04,-0.22 1.36,-0.64 0.32,-0.43 0.48,-1.03 0.48,-1.82 z m 1.08,2.55 c 0,1.12 -0.25,1.95 -0.74,2.49 -0.5,0.55 -1.26,0.82 -2.29,0.82 -0.37,0 -0.73,-0.02 -1.07,-0.08 -0.34,-0.06 -0.66,-0.14 -0.98,-0.26 l 0,-1.05 c 0.32,0.17 0.63,0.3 0.94,0.38 0.31,0.08 0.63,0.12 0.94,0.12 0.71,0 1.24,-0.18 1.59,-0.55 0.36,-0.37 0.53,-0.93 0.53,-1.68 l 0,-0.53 c -0.23,0.38 -0.51,0.67 -0.86,0.87 -0.34,0.19 -0.76,0.28 -1.25,0.28 -0.8,0 -1.45,-0.3 -1.94,-0.92 -0.5,-0.61 -0.74,-1.42 -0.74,-2.44 0,-1.01 0.24,-1.82 0.74,-2.43 0.49,-0.62 1.14,-0.92 1.94,-0.92 0.49,0 0.91,0.09 1.25,0.28 0.35,0.2 0.63,0.49 0.86,0.87 l 0,-1 1.08,0 0,5.75 z m 7.84,-2.73 0,0.51 -4.97,0 c 0.05,0.75 0.28,1.32 0.68,1.71 0.4,0.38 0.95,0.57 1.66,0.57 0.42,0 0.82,-0.05 1.21,-0.14 0.39,-0.1 0.78,-0.26 1.17,-0.47 l 0,1.04 c -0.4,0.15 -0.8,0.27 -1.21,0.36 -0.4,0.09 -0.81,0.14 -1.23,0.14 -1.04,0 -1.87,-0.31 -2.48,-0.92 -0.62,-0.61 -0.93,-1.43 -0.93,-2.47 0,-1.08 0.3,-1.93 0.88,-2.56 0.58,-0.63 1.36,-0.94 2.34,-0.94 0.89,0 1.59,0.28 2.1,0.85 0.52,0.56 0.78,1.34 0.78,2.32 z m -1.08,-0.33 c -0.01,-0.58 -0.18,-1.05 -0.5,-1.41 -0.32,-0.35 -0.75,-0.53 -1.28,-0.53 -0.61,0 -1.09,0.17 -1.45,0.52 -0.36,0.34 -0.56,0.82 -0.61,1.43 l 3.84,-0.01 z"
                         inkscape:connector-curvature="0" />
                      <path
                         id="path5026"
                         style="fill:#000000;fill-opacity:1;fill-rule:nonzero;stroke:none"
                         d="m 379.8,323.04 c 0.25,0.1 0.49,0.29 0.73,0.57 0.24,0.28 0.49,0.66 0.74,1.15 l 1.2,2.39 -1.28,0 -1.11,-2.25 c -0.29,-0.58 -0.57,-0.97 -0.84,-1.16 -0.28,-0.19 -0.65,-0.29 -1.11,-0.29 l -1.3,0 0,3.7 -1.19,0 0,-8.75 2.67,0 c 1,0 1.75,0.21 2.25,0.63 0.49,0.42 0.74,1.05 0.74,1.89 0,0.55 -0.13,1.01 -0.38,1.37 -0.26,0.37 -0.63,0.62 -1.12,0.75 z m -2.97,-3.67 0,3.11 1.48,0 c 0.58,0 1.01,-0.13 1.3,-0.4 0.29,-0.26 0.44,-0.65 0.44,-1.16 0,-0.51 -0.15,-0.9 -0.44,-1.16 -0.29,-0.26 -0.72,-0.39 -1.3,-0.39 l -1.48,0 z m 13.12,6.53 0,-2.34 -1.94,0 0,-0.98 3.11,0 0,3.76 c -0.46,0.32 -0.96,0.57 -1.51,0.74 -0.54,0.16 -1.13,0.25 -1.76,0.25 -1.37,0 -2.44,-0.4 -3.21,-1.21 -0.78,-0.8 -1.16,-1.91 -1.16,-3.33 0,-1.43 0.38,-2.55 1.16,-3.35 0.77,-0.79 1.84,-1.19 3.21,-1.19 0.57,0 1.11,0.07 1.62,0.21 0.52,0.14 0.99,0.35 1.43,0.62 l 0,1.26 c -0.44,-0.37 -0.9,-0.65 -1.4,-0.84 -0.49,-0.19 -1.01,-0.28 -1.55,-0.28 -1.07,0 -1.88,0.3 -2.42,0.9 -0.53,0.59 -0.8,1.49 -0.8,2.67 0,1.18 0.27,2.07 0.8,2.67 0.54,0.6 1.35,0.9 2.42,0.9 0.41,0 0.79,-0.04 1.12,-0.11 0.32,-0.07 0.62,-0.19 0.88,-0.35 z m 4.52,-2.92 0,3.21 1.9,0 c 0.64,0 1.11,-0.14 1.42,-0.4 0.3,-0.27 0.46,-0.67 0.46,-1.21 0,-0.56 -0.16,-0.96 -0.46,-1.21 -0.31,-0.26 -0.78,-0.39 -1.42,-0.39 l -1.9,0 z m 0,-3.61 0,2.64 1.75,0 c 0.58,0 1.01,-0.11 1.29,-0.32 0.28,-0.22 0.42,-0.55 0.42,-0.99 0,-0.45 -0.14,-0.78 -0.42,-1 -0.28,-0.22 -0.71,-0.33 -1.29,-0.33 l -1.75,0 z m -1.19,-0.97 3.03,0 c 0.91,0 1.6,0.19 2.09,0.57 0.48,0.37 0.72,0.9 0.72,1.59 0,0.54 -0.12,0.97 -0.37,1.29 -0.25,0.32 -0.62,0.51 -1.1,0.59 0.59,0.12 1.04,0.38 1.36,0.78 0.33,0.39 0.49,0.89 0.49,1.48 0,0.78 -0.27,1.39 -0.8,1.81 -0.53,0.43 -1.29,0.64 -2.28,0.64 l -3.14,0 0,-8.75 z m 12,2.19 1.08,0 0,6.56 -1.08,0 0,-6.56 z m 0,-2.56 1.08,0 0,1.37 -1.08,0 0,-1.37 z m 8.44,3.83 c 0.27,-0.49 0.6,-0.85 0.97,-1.08 0.38,-0.23 0.82,-0.34 1.33,-0.34 0.69,0 1.21,0.24 1.58,0.71 0.37,0.48 0.56,1.16 0.56,2.04 l 0,3.96 -1.08,0 0,-3.92 c 0,-0.63 -0.11,-1.1 -0.33,-1.4 -0.23,-0.31 -0.57,-0.46 -1.03,-0.46 -0.56,0 -1,0.19 -1.33,0.56 -0.32,0.37 -0.48,0.88 -0.48,1.52 l 0,3.7 -1.08,0 0,-3.92 c 0,-0.63 -0.11,-1.1 -0.33,-1.4 -0.23,-0.31 -0.58,-0.46 -1.04,-0.46 -0.56,0 -0.99,0.19 -1.32,0.56 -0.32,0.37 -0.48,0.88 -0.48,1.52 l 0,3.7 -1.08,0 0,-6.56 1.08,0 0,1.02 c 0.25,-0.4 0.55,-0.69 0.89,-0.89 0.34,-0.19 0.75,-0.28 1.22,-0.28 0.48,0 0.88,0.12 1.22,0.35 0.33,0.24 0.58,0.6 0.73,1.07 z m 9.57,2 c -0.87,0 -1.47,0.1 -1.81,0.29 -0.34,0.2 -0.51,0.54 -0.51,1.02 0,0.39 0.13,0.69 0.39,0.91 0.25,0.23 0.59,0.34 1.02,0.34 0.6,0 1.09,-0.21 1.45,-0.63 0.35,-0.42 0.53,-0.99 0.53,-1.7 l 0,-0.23 -1.07,0 z m 2.15,-0.46 0,3.75 -1.08,0 0,-1 c -0.25,0.4 -0.55,0.69 -0.92,0.89 -0.36,0.19 -0.81,0.29 -1.34,0.29 -0.68,0 -1.21,-0.19 -1.61,-0.57 -0.4,-0.38 -0.59,-0.89 -0.59,-1.51 0,-0.74 0.24,-1.3 0.74,-1.67 0.49,-0.38 1.23,-0.57 2.21,-0.57 l 1.51,0 0,-0.11 c 0,-0.5 -0.16,-0.88 -0.49,-1.15 -0.33,-0.27 -0.78,-0.41 -1.37,-0.41 -0.37,0 -0.74,0.05 -1.1,0.14 -0.36,0.1 -0.7,0.23 -1.02,0.41 l 0,-1 c 0.4,-0.16 0.78,-0.27 1.15,-0.35 0.37,-0.07 0.73,-0.1 1.08,-0.1 0.95,0 1.66,0.24 2.13,0.73 0.47,0.49 0.7,1.23 0.7,2.23 z m 6.54,0.39 c 0,-0.78 -0.16,-1.38 -0.48,-1.81 -0.32,-0.42 -0.78,-0.64 -1.36,-0.64 -0.57,0 -1.02,0.22 -1.34,0.64 -0.33,0.43 -0.49,1.03 -0.49,1.81 0,0.79 0.16,1.39 0.49,1.82 0.32,0.42 0.77,0.64 1.34,0.64 0.58,0 1.04,-0.22 1.36,-0.64 0.32,-0.43 0.48,-1.03 0.48,-1.82 z m 1.08,2.55 c 0,1.12 -0.25,1.95 -0.74,2.49 -0.5,0.55 -1.26,0.82 -2.29,0.82 -0.37,0 -0.73,-0.02 -1.07,-0.08 -0.34,-0.06 -0.66,-0.14 -0.98,-0.26 l 0,-1.05 c 0.32,0.17 0.63,0.3 0.94,0.38 0.31,0.08 0.63,0.12 0.94,0.12 0.71,0 1.24,-0.18 1.59,-0.55 0.36,-0.37 0.53,-0.93 0.53,-1.68 l 0,-0.53 c -0.23,0.38 -0.51,0.67 -0.86,0.87 -0.34,0.19 -0.76,0.28 -1.25,0.28 -0.8,0 -1.45,-0.3 -1.94,-0.92 -0.5,-0.61 -0.74,-1.42 -0.74,-2.44 0,-1.01 0.24,-1.82 0.74,-2.43 0.49,-0.62 1.14,-0.92 1.94,-0.92 0.49,0 0.91,0.09 1.25,0.28 0.35,0.2 0.63,0.49 0.86,0.87 l 0,-1 1.08,0 0,5.75 z m 7.84,-2.73 0,0.51 -4.97,0 c 0.05,0.75 0.28,1.32 0.68,1.71 0.4,0.38 0.95,0.57 1.66,0.57 0.42,0 0.82,-0.05 1.21,-0.14 0.39,-0.1 0.78,-0.26 1.17,-0.47 l 0,1.04 c -0.4,0.15 -0.8,0.27 -1.21,0.36 -0.4,0.09 -0.81,0.14 -1.23,0.14 -1.04,0 -1.87,-0.31 -2.48,-0.92 -0.62,-0.61 -0.93,-1.43 -0.93,-2.47 0,-1.08 0.3,-1.93 0.88,-2.56 0.58,-0.63 1.36,-0.94 2.34,-0.94 0.89,0 1.59,0.28 2.1,0.85 0.52,0.56 0.78,1.34 0.78,2.32 z m -1.08,-0.33 c -0.01,-0.58 -0.18,-1.05 -0.5,-1.41 -0.32,-0.35 -0.75,-0.53 -1.28,-0.53 -0.61,0 -1.09,0.17 -1.45,0.52 -0.36,0.34 -0.56,0.82 -0.61,1.43 l 3.84,-0.01 z"
                         inkscape:connector-curvature="0" />
                      <path
                         id="path5028"
                         style="fill:#ccffff;fill-opacity:1;fill-rule:nonzero;stroke:none"
                         d="m 146,96 0,70 c 0,2.21 1.79,4 4,4 l 22,0 c 2.21,0 4,-1.79 4,-4 l 0,-70 c 0,-2.209 -1.79,-4 -4,-4 l -22,0 c -2.21,0 -4,1.791 -4,4 z"
                         inkscape:connector-curvature="0" />
                      <g
                         transform="matrix(0,-1,1,0,152.02,165.98)"
                         id="g5030">
                        <path
                           id="path5032"
                           style="fill:#000000;fill-opacity:1;fill-rule:nonzero;stroke:none"
                           d="m 3.1719,4.3887 1.1875,0 0,3.7031 3.9218,-3.7031 1.5313,0 -4.3437,4.0781 4.6562,4.6722 -1.5625,0 -4.2031,-4.2191 0,4.2191 -1.1875,0 0,-8.7503 z m 13.2911,4.7812 0,3.9691 -1.078,0 0,-3.9222 c 0,-0.625 -0.123,-1.0911 -0.367,-1.3984 -0.245,-0.3073 -0.607,-0.461 -1.086,-0.461 -0.584,0 -1.045,0.1849 -1.383,0.5547 -0.339,0.3698 -0.508,0.8776 -0.508,1.5234 l 0,3.7035 -1.078,0 0,-6.5628 1.078,0 0,1.0156 c 0.26,-0.3958 0.565,-0.6901 0.914,-0.8828 0.349,-0.1927 0.753,-0.2891 1.211,-0.2891 0.75,0 1.32,0.2318 1.711,0.6953 0.391,0.4636 0.586,1.1485 0.586,2.0547 z m 4.683,-1.8437 c -0.572,0 -1.028,0.2265 -1.367,0.6797 -0.338,0.4531 -0.508,1.0703 -0.508,1.8515 0,0.7916 0.167,1.4116 0.5,1.8596 0.334,0.448 0.792,0.672 1.375,0.672 0.573,0 1.029,-0.227 1.368,-0.68 0.338,-0.453 0.507,-1.07 0.507,-1.8516 0,-0.7708 -0.169,-1.3854 -0.507,-1.8437 C 22.175,7.5553 21.719,7.3262 21.146,7.3262 z m 0,-0.9063 c 0.938,0 1.675,0.3047 2.211,0.9141 0.537,0.6094 0.805,1.4505 0.805,2.5234 0,1.0726 -0.268,1.9166 -0.805,2.5316 -0.536,0.614 -1.273,0.922 -2.211,0.922 -0.937,0 -1.674,-0.308 -2.21,-0.922 -0.537,-0.615 -0.805,-1.459 -0.805,-2.5316 0,-1.0729 0.268,-1.914 0.805,-2.5234 0.536,-0.6094 1.273,-0.9141 2.21,-0.9141 z m 4.17,0.1563 1.079,0 1.359,5.1248 1.328,-5.1248 1.281,0 1.344,5.1248 1.344,-5.1248 1.078,0 -1.719,6.5628 -1.265,0 -1.422,-5.3753 -1.407,5.3753 -1.281,0 -1.719,-6.5628 z m 10.44,-2.5625 1.078,0 0,9.1253 -1.078,0 0,-9.1253 z m 8.959,5.5781 0,0.5152 -4.969,0 c 0.052,0.75 0.279,1.318 0.68,1.704 0.401,0.385 0.956,0.578 1.664,0.578 0.417,0 0.82,-0.05 1.211,-0.149 0.39,-0.099 0.778,-0.252 1.164,-0.461 l 0,1.032 c -0.396,0.156 -0.797,0.278 -1.203,0.367 -0.407,0.088 -0.818,0.133 -1.235,0.133 -1.041,0 -1.869,-0.305 -2.484,-0.915 -0.615,-0.609 -0.922,-1.434 -0.922,-2.4761 0,-1.0729 0.292,-1.9245 0.875,-2.5547 0.583,-0.6302 1.365,-0.9453 2.344,-0.9453 0.885,0 1.586,0.2839 2.101,0.8516 0.516,0.5677 0.774,1.3411 0.774,2.3203 z M 43.637,9.2637 C 43.626,8.6803 43.46,8.2116 43.137,7.8574 42.814,7.5033 42.387,7.3262 41.855,7.3262 c -0.604,0 -1.085,0.1718 -1.445,0.5156 -0.359,0.3437 -0.565,0.8229 -0.617,1.4375 l 3.844,-0.0156 z m 7.164,-1.6875 0,-3.5625 1.078,0 0,9.1253 -1.078,0 0,-0.985 c -0.229,0.386 -0.516,0.675 -0.86,0.867 -0.343,0.193 -0.76,0.29 -1.25,0.29 -0.791,0 -1.437,-0.318 -1.937,-0.954 -0.5,-0.635 -0.75,-1.468 -0.75,-2.4996 0,-1.0312 0.25,-1.862 0.75,-2.4922 0.5,-0.6302 1.146,-0.9453 1.937,-0.9453 0.49,0 0.907,0.0938 1.25,0.2813 0.344,0.1875 0.631,0.4791 0.86,0.875 z m -3.672,2.2812 c 0,0.7916 0.161,1.4136 0.484,1.8676 0.323,0.453 0.771,0.679 1.344,0.679 0.573,0 1.023,-0.226 1.352,-0.679 0.328,-0.454 0.492,-1.076 0.492,-1.8676 C 50.801,9.0658 50.637,8.446 50.309,7.998 49.98,7.5501 49.53,7.3262 48.957,7.3262 c -0.573,0 -1.021,0.2239 -1.344,0.6718 -0.323,0.448 -0.484,1.0678 -0.484,1.8594 z M 58.418,9.7793 c 0,-0.7813 -0.161,-1.3854 -0.484,-1.8125 -0.323,-0.4271 -0.776,-0.6406 -1.36,-0.6406 -0.573,0 -1.021,0.2135 -1.344,0.6406 -0.322,0.4271 -0.484,1.0312 -0.484,1.8125 0,0.7817 0.162,1.3857 0.484,1.8127 0.323,0.427 0.771,0.64 1.344,0.64 0.584,0 1.037,-0.213 1.36,-0.64 0.323,-0.427 0.484,-1.031 0.484,-1.8127 z m 1.078,2.5467 c 0,1.115 -0.247,1.945 -0.742,2.492 -0.495,0.547 -1.258,0.821 -2.289,0.821 -0.375,0 -0.732,-0.029 -1.07,-0.086 -0.339,-0.058 -0.665,-0.143 -0.977,-0.258 l 0,-1.047 c 0.312,0.167 0.625,0.292 0.937,0.375 0.313,0.083 0.625,0.125 0.938,0.125 0.708,0 1.24,-0.185 1.594,-0.555 0.354,-0.369 0.531,-0.929 0.531,-1.679 l 0,-0.532 c -0.229,0.386 -0.516,0.675 -0.859,0.868 -0.344,0.192 -0.761,0.289 -1.25,0.289 -0.802,0 -1.451,-0.308 -1.946,-0.922 -0.495,-0.615 -0.742,-1.427 -0.742,-2.4377 0,-1.0104 0.247,-1.8229 0.742,-2.4375 0.495,-0.6146 1.144,-0.9219 1.946,-0.9219 0.489,0 0.906,0.0964 1.25,0.2891 0.343,0.1927 0.63,0.4818 0.859,0.8672 l 0,-1 1.078,0 0,5.7498 z m 7.836,-2.7342 0,0.5152 -4.969,0 c 0.052,0.75 0.279,1.318 0.68,1.704 0.401,0.385 0.956,0.578 1.664,0.578 0.417,0 0.82,-0.05 1.211,-0.149 0.391,-0.099 0.779,-0.252 1.164,-0.461 l 0,1.032 c -0.396,0.156 -0.797,0.278 -1.203,0.367 -0.406,0.088 -0.818,0.133 -1.234,0.133 -1.042,0 -1.87,-0.305 -2.485,-0.915 -0.614,-0.609 -0.922,-1.434 -0.922,-2.4761 0,-1.0729 0.292,-1.9245 0.875,-2.5547 0.584,-0.6302 1.365,-0.9453 2.344,-0.9453 0.885,0 1.586,0.2839 2.102,0.8516 0.515,0.5677 0.773,1.3411 0.773,2.3203 z M 66.254,9.2637 C 66.243,8.6803 66.077,8.2116 65.754,7.8574 65.431,7.5033 65.004,7.3262 64.473,7.3262 c -0.605,0 -1.086,0.1718 -1.446,0.5156 -0.359,0.3437 -0.565,0.8229 -0.617,1.4375 l 3.844,-0.0156 z"
                           inkscape:connector-curvature="0" />
                      </g>
                      <path
                         id="path5034"
                         style="fill:none;stroke:#000000;stroke-width:1;stroke-linecap:butt;stroke-linejoin:miter;stroke-miterlimit:1.45000005;stroke-opacity:1;stroke-dasharray:none"
                         d="m 146,96 0,70 c 0,2.21 1.79,4 4,4 l 22,0 c 2.21,0 4,-1.79 4,-4 l 0,-70 c 0,-2.209 -1.79,-4 -4,-4 l -22,0 c -2.21,0 -4,1.791 -4,4 z"
                         inkscape:connector-curvature="0" />
                      <path
                         id="path5036"
                         style="fill:#ccffff;fill-opacity:1;fill-rule:nonzero;stroke:none"
                         d="m 146,192 0,70 c 0,2.21 1.79,4 4,4 l 22,0 c 2.21,0 4,-1.79 4,-4 l 0,-70 c 0,-2.21 -1.79,-4 -4,-4 l -22,0 c -2.21,0 -4,1.79 -4,4 z"
                         inkscape:connector-curvature="0" />
                      <g
                         transform="matrix(0,-1,1,0,152.02,263.84)"
                         id="g5038">
                        <path
                           id="path5040"
                           style="fill:#000000;fill-opacity:1;fill-rule:nonzero;stroke:none"
                           d="m 3.1719,4.3887 1.1875,0 0,8.7503 -1.1875,0 0,-8.7503 z m 8.9611,4.7812 0,3.9691 -1.078,0 0,-3.9222 c 0,-0.625 -0.123,-1.0911 -0.367,-1.3984 C 10.443,7.5111 10.081,7.3574 9.6016,7.3574 9.0182,7.3574 8.5573,7.5423 8.2188,7.9121 7.8802,8.2819 7.7109,8.7897 7.7109,9.4355 l 0,3.7035 -1.0781,0 0,-6.5628 1.0781,0 0,1.0156 C 7.9714,7.196 8.276,6.9017 8.625,6.709 8.974,6.5163 9.3776,6.4199 9.8359,6.4199 c 0.7501,0 1.3201,0.2318 1.7111,0.6953 0.391,0.4636 0.586,1.1485 0.586,2.0547 z m 5.465,-5.1562 0,0.9062 -1.032,0 c -0.385,0 -0.653,0.0781 -0.804,0.2344 -0.151,0.1562 -0.227,0.4375 -0.227,0.8437 l 0,0.5782 1.781,0 0,0.8437 -1.781,0 0,5.7191 -1.078,0 0,-5.7191 -1.031,0 0,-0.8437 1.031,0 0,-0.4532 c 0,-0.7291 0.169,-1.263 0.508,-1.6015 0.338,-0.3386 0.877,-0.5078 1.617,-0.5078 l 1.016,0 z m 3.443,3.3125 c -0.573,0 -1.029,0.2265 -1.367,0.6797 -0.339,0.4531 -0.508,1.0703 -0.508,1.8515 0,0.7916 0.167,1.4116 0.5,1.8596 0.333,0.448 0.792,0.672 1.375,0.672 0.573,0 1.029,-0.227 1.367,-0.68 0.339,-0.453 0.508,-1.07 0.508,-1.8516 0,-0.7708 -0.169,-1.3854 -0.508,-1.8437 C 22.07,7.5553 21.614,7.3262 21.041,7.3262 z m 0,-0.9063 c 0.938,0 1.674,0.3047 2.211,0.9141 0.536,0.6094 0.805,1.4505 0.805,2.5234 0,1.0726 -0.269,1.9166 -0.805,2.5316 -0.537,0.614 -1.273,0.922 -2.211,0.922 -0.937,0 -1.674,-0.308 -2.211,-0.922 -0.536,-0.615 -0.805,-1.459 -0.805,-2.5316 0,-1.0729 0.269,-1.914 0.805,-2.5234 0.537,-0.6094 1.274,-0.9141 2.211,-0.9141 z m 8.607,1.1563 C 29.523,7.5137 29.391,7.4642 29.25,7.4277 29.109,7.3913 28.951,7.373 28.773,7.373 c -0.604,0 -1.07,0.198 -1.398,0.5938 -0.328,0.3958 -0.492,0.9687 -0.492,1.7187 l 0,3.4535 -1.078,0 0,-6.5628 1.078,0 0,1.0156 c 0.229,-0.3958 0.526,-0.6901 0.89,-0.8828 0.365,-0.1927 0.808,-0.2891 1.329,-0.2891 0.072,0 0.153,0.0052 0.242,0.0156 0.088,0.0105 0.185,0.0261 0.289,0.0469 l 0.015,1.0938 z m 6.231,0.2656 c 0.271,-0.4896 0.594,-0.849 0.969,-1.0781 0.375,-0.2292 0.817,-0.3438 1.328,-0.3438 0.687,0 1.216,0.2396 1.586,0.7188 0.37,0.4791 0.554,1.1562 0.554,2.0312 l 0,3.9691 -1.078,0 0,-3.9222 c 0,-0.6354 -0.112,-1.1042 -0.336,-1.4063 -0.224,-0.302 -0.565,-0.4531 -1.023,-0.4531 -0.563,0 -1.005,0.1849 -1.328,0.5547 -0.323,0.3698 -0.485,0.8776 -0.485,1.5234 l 0,3.7035 -1.078,0 0,-3.9222 c 0,-0.6354 -0.112,-1.1042 -0.336,-1.4063 -0.224,-0.302 -0.57,-0.4531 -1.039,-0.4531 -0.552,0 -0.989,0.1849 -1.312,0.5547 -0.323,0.3698 -0.485,0.8776 -0.485,1.5234 l 0,3.7035 -1.078,0 0,-6.5628 1.078,0 0,1.0156 c 0.25,-0.3958 0.547,-0.6901 0.891,-0.8828 0.344,-0.1927 0.75,-0.2891 1.219,-0.2891 0.479,0 0.885,0.1198 1.219,0.3594 0.333,0.2396 0.578,0.5937 0.734,1.0625 z m 9.564,2 c -0.864,0 -1.466,0.099 -1.804,0.2972 -0.339,0.198 -0.508,0.536 -0.508,1.015 0,0.386 0.127,0.69 0.383,0.914 0.255,0.224 0.596,0.336 1.023,0.336 0.604,0 1.086,-0.211 1.445,-0.633 0.36,-0.421 0.539,-0.986 0.539,-1.695 l 0,-0.2342 -1.078,0 z m 2.157,-0.4531 0,3.7503 -1.079,0 0,-1 c -0.25,0.396 -0.557,0.69 -0.921,0.882 -0.365,0.193 -0.813,0.29 -1.344,0.29 -0.677,0 -1.214,-0.191 -1.61,-0.571 -0.395,-0.38 -0.593,-0.883 -0.593,-1.508 0,-0.739 0.247,-1.2965 0.742,-1.6715 0.495,-0.375 1.232,-0.5625 2.211,-0.5625 l 1.515,0 0,-0.1093 c 0,-0.5 -0.164,-0.8854 -0.492,-1.1563 -0.328,-0.2708 -0.784,-0.4062 -1.367,-0.4062 -0.375,0 -0.742,0.0468 -1.101,0.1406 -0.36,0.0937 -0.701,0.2292 -1.024,0.4062 l 0,-1 c 0.396,-0.1562 0.779,-0.2708 1.149,-0.3437 0.369,-0.0729 0.731,-0.1094 1.085,-0.1094 0.948,0 1.657,0.2448 2.125,0.7344 0.469,0.4896 0.704,1.2344 0.704,2.2344 z m 3.291,-4.6719 0,1.8594 2.218,0 0,0.8437 -2.218,0 0,3.5621 c 0,0.532 0.073,0.873 0.218,1.024 0.146,0.151 0.443,0.226 0.891,0.226 l 1.109,0 0,0.907 -1.109,0 c -0.833,0 -1.409,-0.157 -1.727,-0.469 -0.317,-0.313 -0.476,-0.875 -0.476,-1.688 l 0,-3.5621 -0.781,0 0,-0.8437 0.781,0 0,-1.8594 1.094,0 z m 3.627,1.8594 1.078,0 0,6.5628 -1.078,0 0,-6.5628 z m 0,-2.5625 1.078,0 0,1.375 -1.078,0 0,-1.375 z m 5.88,3.3125 c -0.572,0 -1.028,0.2265 -1.367,0.6797 -0.338,0.4531 -0.508,1.0703 -0.508,1.8515 0,0.7916 0.167,1.4116 0.5,1.8596 0.334,0.448 0.792,0.672 1.375,0.672 0.573,0 1.029,-0.227 1.368,-0.68 0.338,-0.453 0.507,-1.07 0.507,-1.8516 0,-0.7708 -0.169,-1.3854 -0.507,-1.8437 C 61.427,7.5553 60.971,7.3262 60.398,7.3262 z m 0,-0.9063 c 0.938,0 1.675,0.3047 2.211,0.9141 0.537,0.6094 0.805,1.4505 0.805,2.5234 0,1.0726 -0.268,1.9166 -0.805,2.5316 -0.536,0.614 -1.273,0.922 -2.211,0.922 -0.937,0 -1.674,-0.308 -2.21,-0.922 -0.537,-0.615 -0.805,-1.459 -0.805,-2.5316 0,-1.0729 0.268,-1.914 0.805,-2.5234 0.536,-0.6094 1.273,-0.9141 2.21,-0.9141 z m 10.264,2.75 0,3.9691 -1.078,0 0,-3.9222 c 0,-0.625 -0.122,-1.0911 -0.367,-1.3984 -0.245,-0.3073 -0.607,-0.461 -1.086,-0.461 -0.583,0 -1.044,0.1849 -1.383,0.5547 C 66.41,8.2819 66.24,8.7897 66.24,9.4355 l 0,3.7035 -1.078,0 0,-6.5628 1.078,0 0,1.0156 c 0.261,-0.3958 0.565,-0.6901 0.914,-0.8828 0.349,-0.1927 0.753,-0.2891 1.211,-0.2891 0.75,0 1.321,0.2318 1.711,0.6953 0.391,0.4636 0.586,1.1485 0.586,2.0547 z"
                           inkscape:connector-curvature="0" />
                      </g>
                      <path
                         id="path5042"
                         style="fill:none;stroke:#000000;stroke-width:1;stroke-linecap:butt;stroke-linejoin:miter;stroke-miterlimit:1.45000005;stroke-opacity:1;stroke-dasharray:none"
                         d="m 146,192 0,70 c 0,2.21 1.79,4 4,4 l 22,0 c 2.21,0 4,-1.79 4,-4 l 0,-70 c 0,-2.21 -1.79,-4 -4,-4 l -22,0 c -2.21,0 -4,1.79 -4,4 z"
                         inkscape:connector-curvature="0" />
                      <path
                         id="path5044"
                         style="fill:#ccffff;fill-opacity:1;fill-rule:nonzero;stroke:none"
                         d="m 146,288 0,70 c 0,2.21 1.79,4 4,4 l 22,0 c 2.21,0 4,-1.79 4,-4 l 0,-70 c 0,-2.21 -1.79,-4 -4,-4 l -22,0 c -2.21,0 -4,1.79 -4,4 z"
                         inkscape:connector-curvature="0" />
                      <g
                         transform="matrix(0,-1,1,0,152.02,339.33)"
                         id="g5046">
                        <path
                           id="path5048"
                           style="fill:#000000;fill-opacity:1;fill-rule:nonzero;stroke:none"
                           d="m 4.3594,5.3574 0,6.8126 1.4375,0 c 1.2083,0 2.0911,-0.274 2.6484,-0.82 C 9.0026,10.803 9.2812,9.9355 9.2812,8.748 9.2812,7.5814 9.0026,6.7246 8.4453,6.1777 7.888,5.6309 7.0052,5.3574 5.7969,5.3574 l -1.4375,0 z m -1.1875,-0.9687 2.4375,0 c 1.6979,0 2.9427,0.3515 3.7344,1.0547 0.7912,0.7031 1.1872,1.8046 1.1872,3.3046 0,1.51 -0.398,2.62 -1.1951,3.328 -0.7968,0.709 -2.039,1.063 -3.7265,1.063 l -2.4375,0 0,-8.7503 z M 15.35,9.8418 c -0.865,0 -1.467,0.099 -1.805,0.2972 -0.339,0.198 -0.508,0.536 -0.508,1.015 0,0.386 0.128,0.69 0.383,0.914 0.255,0.224 0.596,0.336 1.023,0.336 0.605,0 1.086,-0.211 1.446,-0.633 0.359,-0.421 0.539,-0.986 0.539,-1.695 l 0,-0.2342 -1.078,0 z m 2.156,-0.4531 0,3.7503 -1.078,0 0,-1 c -0.25,0.396 -0.558,0.69 -0.922,0.882 -0.365,0.193 -0.813,0.29 -1.344,0.29 -0.677,0 -1.213,-0.191 -1.609,-0.571 -0.396,-0.38 -0.594,-0.883 -0.594,-1.508 0,-0.739 0.247,-1.2965 0.742,-1.6715 0.495,-0.375 1.232,-0.5625 2.211,-0.5625 l 1.516,0 0,-0.1093 c 0,-0.5 -0.164,-0.8854 -0.492,-1.1563 -0.329,-0.2708 -0.784,-0.4062 -1.368,-0.4062 -0.375,0 -0.742,0.0468 -1.101,0.1406 -0.36,0.0937 -0.701,0.2292 -1.024,0.4062 l 0,-1 c 0.396,-0.1562 0.779,-0.2708 1.149,-0.3437 0.37,-0.0729 0.732,-0.1094 1.086,-0.1094 0.948,0 1.656,0.2448 2.125,0.7344 0.468,0.4896 0.703,1.2344 0.703,2.2344 z m 3.291,-4.6719 0,1.8594 2.219,0 0,0.8437 -2.219,0 0,3.5621 c 0,0.532 0.073,0.873 0.219,1.024 0.145,0.151 0.442,0.226 0.89,0.226 l 1.11,0 0,0.907 -1.11,0 c -0.833,0 -1.409,-0.157 -1.726,-0.469 -0.318,-0.313 -0.477,-0.875 -0.477,-1.688 l 0,-3.5621 -0.781,0 0,-0.8437 0.781,0 0,-1.8594 1.094,0 z m 6.611,5.125 c -0.864,0 -1.466,0.099 -1.804,0.2972 -0.339,0.198 -0.508,0.536 -0.508,1.015 0,0.386 0.127,0.69 0.383,0.914 0.255,0.224 0.596,0.336 1.023,0.336 0.604,0 1.086,-0.211 1.445,-0.633 0.36,-0.421 0.539,-0.986 0.539,-1.695 l 0,-0.2342 -1.078,0 z m 2.156,-0.4531 0,3.7503 -1.078,0 0,-1 c -0.25,0.396 -0.557,0.69 -0.922,0.882 -0.364,0.193 -0.812,0.29 -1.343,0.29 -0.677,0 -1.214,-0.191 -1.61,-0.571 -0.396,-0.38 -0.593,-0.883 -0.593,-1.508 0,-0.739 0.247,-1.2965 0.742,-1.6715 0.495,-0.375 1.232,-0.5625 2.211,-0.5625 l 1.515,0 0,-0.1093 c 0,-0.5 -0.164,-0.8854 -0.492,-1.1563 -0.328,-0.2708 -0.784,-0.4062 -1.367,-0.4062 -0.375,0 -0.742,0.0468 -1.102,0.1406 -0.359,0.0937 -0.7,0.2292 -1.023,0.4062 l 0,-1 c 0.396,-0.1562 0.779,-0.2708 1.148,-0.3437 0.37,-0.0729 0.732,-0.1094 1.086,-0.1094 0.948,0 1.657,0.2448 2.125,0.7344 0.469,0.4896 0.703,1.2344 0.703,2.2344 z"
                           inkscape:connector-curvature="0" />
                      </g>
                      <path
                         id="path5050"
                         style="fill:none;stroke:#000000;stroke-width:1;stroke-linecap:butt;stroke-linejoin:miter;stroke-miterlimit:1.45000005;stroke-opacity:1;stroke-dasharray:none"
                         d="m 146,288 0,70 c 0,2.21 1.79,4 4,4 l 22,0 c 2.21,0 4,-1.79 4,-4 l 0,-70 c 0,-2.21 -1.79,-4 -4,-4 l -22,0 c -2.21,0 -4,1.79 -4,4 z"
                         inkscape:connector-curvature="0" />
                      <path
                         id="path5052"
                         style="fill:#000000;fill-opacity:1;fill-rule:nonzero;stroke:none"
                         d="m 231.53,410.72 0,1.85 2.22,0 0,0.85 -2.22,0 0,3.56 c 0,0.53 0.08,0.87 0.22,1.02 0.15,0.16 0.44,0.23 0.89,0.23 l 1.11,0 0,0.91 -1.11,0 c -0.83,0 -1.41,-0.16 -1.72,-0.47 -0.32,-0.31 -0.48,-0.88 -0.48,-1.69 l 0,-3.56 -0.78,0 0,-0.85 0.78,0 0,-1.85 1.09,0 z m 3.99,7.42 1.94,0 0,-6.67 -2.11,0.42 0,-1.08 2.09,-0.42 1.19,0 0,7.75 1.94,0 0,1 -5.05,0 0,-1 z"
                         inkscape:connector-curvature="0" />
                      <path
                         id="path5054"
                         style="fill:#000000;fill-opacity:1;fill-rule:nonzero;stroke:none"
                         d="m 404.03,410.72 0,1.85 2.22,0 0,0.85 -2.22,0 0,3.56 c 0,0.53 0.08,0.87 0.22,1.02 0.15,0.16 0.44,0.23 0.89,0.23 l 1.11,0 0,0.91 -1.11,0 c -0.83,0 -1.41,-0.16 -1.72,-0.47 -0.32,-0.31 -0.48,-0.88 -0.48,-1.69 l 0,-3.56 -0.78,0 0,-0.85 0.78,0 0,-1.85 1.09,0 z m 4.8,7.42 4.14,0 0,1 -5.56,0 0,-1 c 0.45,-0.46 1.06,-1.08 1.84,-1.87 0.77,-0.79 1.26,-1.29 1.46,-1.52 0.38,-0.42 0.65,-0.78 0.8,-1.07 0.15,-0.3 0.23,-0.59 0.23,-0.87 0,-0.47 -0.17,-0.85 -0.49,-1.14 -0.33,-0.29 -0.76,-0.44 -1.28,-0.44 -0.37,0 -0.77,0.06 -1.18,0.19 -0.41,0.12 -0.85,0.32 -1.32,0.59 l 0,-1.2 c 0.48,-0.19 0.93,-0.33 1.34,-0.43 0.41,-0.1 0.79,-0.15 1.13,-0.15 0.91,0 1.63,0.23 2.17,0.68 0.54,0.45 0.82,1.06 0.82,1.82 0,0.36 -0.07,0.69 -0.21,1.02 -0.13,0.32 -0.38,0.7 -0.73,1.14 -0.11,0.11 -0.42,0.44 -0.94,0.98 -0.52,0.54 -1.26,1.3 -2.22,2.27 z"
                         inkscape:connector-curvature="0" />
                      <path
                         id="path5056"
                         style="fill:#000000;fill-opacity:1;fill-rule:nonzero;stroke:none"
                         d="m 572.23,410.72 0,1.85 2.22,0 0,0.85 -2.22,0 0,3.56 c 0,0.53 0.08,0.87 0.22,1.02 0.15,0.16 0.44,0.23 0.89,0.23 l 1.11,0 0,0.91 -1.11,0 c -0.83,0 -1.41,-0.16 -1.72,-0.47 -0.32,-0.31 -0.48,-0.88 -0.48,-1.69 l 0,-3.56 -0.78,0 0,-0.85 0.78,0 0,-1.85 1.09,0 z m 7.38,3.7 c 0.56,0.12 1,0.38 1.32,0.76 0.32,0.38 0.48,0.85 0.48,1.41 0,0.86 -0.3,1.53 -0.89,2.01 -0.6,0.47 -1.44,0.71 -2.53,0.71 -0.37,0 -0.75,-0.04 -1.14,-0.11 -0.39,-0.07 -0.79,-0.18 -1.19,-0.33 l 0,-1.14 c 0.32,0.19 0.68,0.33 1.07,0.43 0.39,0.1 0.8,0.15 1.22,0.15 0.74,0 1.31,-0.15 1.7,-0.44 0.39,-0.29 0.59,-0.72 0.59,-1.28 0,-0.51 -0.19,-0.91 -0.55,-1.2 -0.37,-0.29 -0.87,-0.44 -1.5,-0.44 l -1.03,0 0,-0.97 1.08,0 c 0.57,0 1.01,-0.12 1.32,-0.35 0.32,-0.24 0.47,-0.57 0.47,-1.01 0,-0.45 -0.16,-0.79 -0.47,-1.03 -0.32,-0.24 -0.78,-0.36 -1.37,-0.36 -0.34,0 -0.69,0.03 -1.06,0.1 -0.37,0.07 -0.78,0.18 -1.22,0.32 l 0,-1.04 c 0.46,-0.13 0.88,-0.22 1.27,-0.29 0.39,-0.06 0.76,-0.09 1.1,-0.09 0.91,0 1.62,0.2 2.14,0.61 0.52,0.41 0.78,0.96 0.78,1.66 0,0.49 -0.13,0.9 -0.41,1.23 -0.28,0.33 -0.67,0.56 -1.18,0.69 z"
                         inkscape:connector-curvature="0" />
                      <path
                         id="path5058"
                         style="fill:none;stroke:#000000;stroke-width:1;stroke-linecap:butt;stroke-linejoin:miter;stroke-miterlimit:1.45000005;stroke-opacity:1;stroke-dasharray:none"
                         d="m 176,388 456,0"
                         inkscape:connector-curvature="0" />
                      <path
                         id="path5060"
                         style="fill:#000000;fill-opacity:1;fill-rule:nonzero;stroke:none"
                         d="m 640,388 -12,-5 3,5 -3,5 12,-5 z"
                         inkscape:connector-curvature="0" />
                      <path
                         id="path5062"
                         style="fill:#000000;fill-opacity:1;fill-rule:nonzero;stroke:none"
                         d="m 393.1,442.2 7.39,0 0,1 -3.09,0 0,7.75 -1.19,0 0,-7.75 -3.11,0 0,-1 z m 8.49,2.19 1.08,0 0,6.56 -1.08,0 0,-6.56 z m 0,-2.56 1.08,0 0,1.37 -1.08,0 0,-1.37 z m 8.44,3.83 c 0.27,-0.49 0.59,-0.85 0.97,-1.08 0.37,-0.23 0.82,-0.34 1.33,-0.34 0.68,0 1.21,0.24 1.58,0.71 0.37,0.48 0.56,1.16 0.56,2.04 l 0,3.96 -1.08,0 0,-3.92 c 0,-0.63 -0.11,-1.1 -0.34,-1.4 -0.22,-0.31 -0.56,-0.46 -1.02,-0.46 -0.56,0 -1,0.19 -1.33,0.56 -0.32,0.37 -0.48,0.88 -0.48,1.52 l 0,3.7 -1.08,0 0,-3.92 c 0,-0.63 -0.11,-1.1 -0.34,-1.4 -0.22,-0.31 -0.57,-0.46 -1.04,-0.46 -0.55,0 -0.98,0.19 -1.31,0.56 -0.32,0.37 -0.48,0.88 -0.48,1.52 l 0,3.7 -1.08,0 0,-6.56 1.08,0 0,1.02 c 0.25,-0.4 0.54,-0.69 0.89,-0.89 0.34,-0.19 0.75,-0.28 1.22,-0.28 0.48,0 0.88,0.12 1.22,0.35 0.33,0.24 0.57,0.6 0.73,1.07 z m 12.21,1.75 0,0.51 -4.97,0 c 0.05,0.75 0.28,1.32 0.68,1.71 0.4,0.38 0.95,0.57 1.66,0.57 0.42,0 0.82,-0.05 1.21,-0.14 0.39,-0.1 0.78,-0.26 1.17,-0.47 l 0,1.04 c -0.4,0.15 -0.8,0.27 -1.21,0.36 -0.4,0.09 -0.82,0.14 -1.23,0.14 -1.04,0 -1.87,-0.31 -2.49,-0.92 -0.61,-0.61 -0.92,-1.43 -0.92,-2.47 0,-1.08 0.29,-1.93 0.88,-2.56 0.58,-0.63 1.36,-0.94 2.34,-0.94 0.89,0 1.59,0.28 2.1,0.85 0.52,0.56 0.78,1.34 0.78,2.32 z m -1.08,-0.33 c -0.01,-0.58 -0.18,-1.05 -0.5,-1.41 -0.33,-0.35 -0.75,-0.53 -1.28,-0.53 -0.61,0 -1.09,0.17 -1.45,0.52 -0.36,0.34 -0.56,0.82 -0.62,1.43 l 3.85,-0.01 z"
                         inkscape:connector-curvature="0" />
                      <path
                         id="path5064"
                         style="fill:none;stroke:#000000;stroke-width:1;stroke-linecap:butt;stroke-linejoin:miter;stroke-miterlimit:1.45000005;stroke-opacity:1;stroke-dasharray:none"
                         d="M 247.17,220.51 374.03,149.9"
                         inkscape:connector-curvature="0" />
                      <path
                         id="path5066"
                         style="fill:#000000;fill-opacity:1;fill-rule:nonzero;stroke:none"
                         d="m 381.02,146.01 -12.91,1.47 5.05,2.91 -0.19,5.83 8.05,-10.21 z"
                         inkscape:connector-curvature="0" />
                      <path
                         id="path5068"
                         style="fill:none;stroke:#000000;stroke-width:1;stroke-linecap:butt;stroke-linejoin:miter;stroke-miterlimit:1.45000005;stroke-opacity:1;stroke-dasharray:none"
                         d="m 408,220.48 0,-66.49"
                         inkscape:connector-curvature="0" />
                      <path
                         id="path5070"
                         style="fill:#000000;fill-opacity:1;fill-rule:nonzero;stroke:none"
                         d="m 408,145.99 -5,12 5,-3 5,3 -5,-12 z"
                         inkscape:connector-curvature="0" />
                      <path
                         id="path5072"
                         style="fill:none;stroke:#000000;stroke-width:1;stroke-linecap:butt;stroke-linejoin:miter;stroke-miterlimit:1.45000005;stroke-opacity:1;stroke-dasharray:none"
                         d="M 568.83,220.51 441.97,149.9"
                         inkscape:connector-curvature="0" />
                      <path
                         id="path5074"
                         style="fill:#000000;fill-opacity:1;fill-rule:nonzero;stroke:none"
                         d="m 434.98,146.01 8.05,10.21 -0.19,-5.83 5.05,-2.91 -12.91,-1.47 z"
                         inkscape:connector-curvature="0" />
                      <path
                         id="path5076"
                         style="fill:none;stroke:#000000;stroke-width:1;stroke-linecap:butt;stroke-linejoin:miter;stroke-miterlimit:1.45000005;stroke-opacity:1;stroke-dasharray:none"
                         d="m 235.5,316.48 0,-74.97"
                         inkscape:connector-curvature="0" />
                      <path
                         id="path5078"
                         style="fill:#000000;fill-opacity:1;fill-rule:nonzero;stroke:none"
                         d="m 235.5,233.51 -5,12 5,-3 5,3 -5,-12 z"
                         inkscape:connector-curvature="0" />
                      <path
                         id="path5080"
                         style="fill:none;stroke:#000000;stroke-width:1;stroke-linecap:butt;stroke-linejoin:miter;stroke-miterlimit:1.45000005;stroke-opacity:1;stroke-dasharray:none"
                         d="m 408,316.48 0,-74.97"
                         inkscape:connector-curvature="0" />
                      <path
                         id="path5082"
                         style="fill:#000000;fill-opacity:1;fill-rule:nonzero;stroke:none"
                         d="m 408,233.51 -5,12 5,-3 5,3 -5,-12 z"
                         inkscape:connector-curvature="0" />
                      <path
                         id="path5084"
                         style="fill:none;stroke:#000000;stroke-width:1;stroke-linecap:butt;stroke-linejoin:miter;stroke-miterlimit:1.45000005;stroke-opacity:1;stroke-dasharray:none"
                         d="m 235.5,399.98 0,-23.59"
                         inkscape:connector-curvature="0" />
                      <path
                         id="path5086"
                         style="fill:none;stroke:#000000;stroke-width:1;stroke-linecap:butt;stroke-linejoin:miter;stroke-miterlimit:1.45000005;stroke-opacity:1;stroke-dasharray:none"
                         d="m 408,399.98 0,-23.59"
                         inkscape:connector-curvature="0" />
                      <path
                         id="path5088"
                         style="fill:none;stroke:#000000;stroke-width:1;stroke-linecap:butt;stroke-linejoin:miter;stroke-miterlimit:1.45000005;stroke-opacity:1;stroke-dasharray:none"
                         d="m 576.2,399.98 0,-23.59"
                         inkscape:connector-curvature="0" />
                      <path
                         id="path5090"
                         style="fill:#000000;fill-opacity:1;fill-rule:nonzero;stroke:none"
                         d="m 544.33,323.04 c 0.25,0.1 0.49,0.29 0.73,0.57 0.24,0.28 0.49,0.66 0.74,1.15 l 1.2,2.39 -1.28,0 -1.11,-2.25 c -0.29,-0.58 -0.57,-0.97 -0.84,-1.16 -0.28,-0.19 -0.65,-0.29 -1.11,-0.29 l -1.3,0 0,3.7 -1.19,0 0,-8.75 2.67,0 c 1,0 1.75,0.21 2.25,0.63 0.49,0.42 0.74,1.05 0.74,1.89 0,0.55 -0.13,1.01 -0.38,1.37 -0.26,0.37 -0.63,0.62 -1.12,0.75 z m -2.97,-3.67 0,3.11 1.48,0 c 0.58,0 1.01,-0.13 1.3,-0.4 0.29,-0.26 0.44,-0.65 0.44,-1.16 0,-0.51 -0.15,-0.9 -0.44,-1.16 -0.29,-0.26 -0.72,-0.39 -1.3,-0.39 l -1.48,0 z m 13.12,6.53 0,-2.34 -1.94,0 0,-0.98 3.11,0 0,3.76 c -0.46,0.32 -0.96,0.57 -1.51,0.74 -0.54,0.16 -1.13,0.25 -1.76,0.25 -1.37,0 -2.44,-0.4 -3.21,-1.21 -0.77,-0.8 -1.16,-1.91 -1.16,-3.33 0,-1.43 0.39,-2.55 1.16,-3.35 0.77,-0.79 1.84,-1.19 3.21,-1.19 0.57,0 1.11,0.07 1.62,0.21 0.52,0.14 0.99,0.35 1.43,0.62 l 0,1.26 c -0.44,-0.37 -0.9,-0.65 -1.4,-0.84 -0.49,-0.19 -1.01,-0.28 -1.55,-0.28 -1.07,0 -1.88,0.3 -2.42,0.9 -0.53,0.59 -0.8,1.49 -0.8,2.67 0,1.18 0.27,2.07 0.8,2.67 0.54,0.6 1.35,0.9 2.42,0.9 0.42,0 0.79,-0.04 1.12,-0.11 0.32,-0.07 0.62,-0.19 0.88,-0.35 z m 4.52,-2.92 0,3.21 1.9,0 c 0.64,0 1.11,-0.14 1.42,-0.4 0.3,-0.27 0.46,-0.67 0.46,-1.21 0,-0.56 -0.16,-0.96 -0.46,-1.21 -0.31,-0.26 -0.78,-0.39 -1.42,-0.39 l -1.9,0 z m 0,-3.61 0,2.64 1.75,0 c 0.58,0 1.01,-0.11 1.29,-0.32 0.28,-0.22 0.42,-0.55 0.42,-0.99 0,-0.45 -0.14,-0.78 -0.42,-1 -0.28,-0.22 -0.71,-0.33 -1.29,-0.33 l -1.75,0 z m -1.19,-0.97 3.03,0 c 0.91,0 1.6,0.19 2.09,0.57 0.48,0.37 0.72,0.9 0.72,1.59 0,0.54 -0.12,0.97 -0.37,1.29 -0.25,0.32 -0.62,0.51 -1.1,0.59 0.59,0.12 1.04,0.38 1.36,0.78 0.33,0.39 0.49,0.89 0.49,1.48 0,0.78 -0.27,1.39 -0.8,1.81 -0.53,0.43 -1.29,0.64 -2.28,0.64 l -3.14,0 0,-8.75 z m 12,2.19 1.08,0 0,6.56 -1.08,0 0,-6.56 z m 0,-2.56 1.08,0 0,1.37 -1.08,0 0,-1.37 z m 8.44,3.83 c 0.27,-0.49 0.6,-0.85 0.97,-1.08 0.38,-0.23 0.82,-0.34 1.33,-0.34 0.69,0 1.21,0.24 1.58,0.71 0.37,0.48 0.56,1.16 0.56,2.04 l 0,3.96 -1.08,0 0,-3.92 c 0,-0.63 -0.11,-1.1 -0.33,-1.4 -0.23,-0.31 -0.57,-0.46 -1.03,-0.46 -0.56,0 -1,0.19 -1.33,0.56 -0.32,0.37 -0.48,0.88 -0.48,1.52 l 0,3.7 -1.08,0 0,-3.92 c 0,-0.63 -0.11,-1.1 -0.33,-1.4 -0.23,-0.31 -0.57,-0.46 -1.04,-0.46 -0.56,0 -0.99,0.19 -1.32,0.56 -0.32,0.37 -0.48,0.88 -0.48,1.52 l 0,3.7 -1.08,0 0,-6.56 1.08,0 0,1.02 c 0.25,-0.4 0.55,-0.69 0.89,-0.89 0.34,-0.19 0.75,-0.28 1.22,-0.28 0.48,0 0.88,0.12 1.22,0.35 0.33,0.24 0.58,0.6 0.73,1.07 z m 9.57,2 c -0.87,0 -1.47,0.1 -1.81,0.29 -0.34,0.2 -0.51,0.54 -0.51,1.02 0,0.39 0.13,0.69 0.39,0.91 0.25,0.23 0.59,0.34 1.02,0.34 0.6,0 1.09,-0.21 1.45,-0.63 0.35,-0.42 0.53,-0.99 0.53,-1.7 l 0,-0.23 -1.07,0 z m 2.15,-0.46 0,3.75 -1.08,0 0,-1 c -0.25,0.4 -0.55,0.69 -0.92,0.89 -0.36,0.19 -0.81,0.29 -1.34,0.29 -0.68,0 -1.21,-0.19 -1.61,-0.57 -0.4,-0.38 -0.59,-0.89 -0.59,-1.51 0,-0.74 0.24,-1.3 0.74,-1.67 0.49,-0.38 1.23,-0.57 2.21,-0.57 l 1.51,0 0,-0.11 c 0,-0.5 -0.16,-0.88 -0.49,-1.15 -0.33,-0.27 -0.78,-0.41 -1.36,-0.41 -0.38,0 -0.75,0.05 -1.11,0.14 -0.36,0.1 -0.7,0.23 -1.02,0.41 l 0,-1 c 0.4,-0.16 0.78,-0.27 1.15,-0.35 0.37,-0.07 0.73,-0.1 1.08,-0.1 0.95,0 1.66,0.24 2.13,0.73 0.47,0.49 0.7,1.23 0.7,2.23 z m 6.54,0.39 c 0,-0.78 -0.16,-1.38 -0.48,-1.81 -0.32,-0.42 -0.78,-0.64 -1.36,-0.64 -0.57,0 -1.02,0.22 -1.34,0.64 -0.33,0.43 -0.49,1.03 -0.49,1.81 0,0.79 0.16,1.39 0.49,1.82 0.32,0.42 0.77,0.64 1.34,0.64 0.58,0 1.04,-0.22 1.36,-0.64 0.32,-0.43 0.48,-1.03 0.48,-1.82 z m 1.08,2.55 c 0,1.12 -0.25,1.95 -0.74,2.49 -0.5,0.55 -1.26,0.82 -2.29,0.82 -0.37,0 -0.73,-0.02 -1.07,-0.08 -0.34,-0.06 -0.66,-0.14 -0.98,-0.26 l 0,-1.05 c 0.32,0.17 0.63,0.3 0.94,0.38 0.31,0.08 0.63,0.12 0.94,0.12 0.71,0 1.24,-0.18 1.59,-0.55 0.36,-0.37 0.53,-0.93 0.53,-1.68 l 0,-0.53 c -0.23,0.38 -0.51,0.67 -0.86,0.87 -0.34,0.19 -0.76,0.28 -1.25,0.28 -0.8,0 -1.45,-0.3 -1.94,-0.92 -0.5,-0.61 -0.74,-1.42 -0.74,-2.44 0,-1.01 0.24,-1.82 0.74,-2.43 0.49,-0.62 1.14,-0.92 1.94,-0.92 0.49,0 0.91,0.09 1.25,0.28 0.35,0.2 0.63,0.49 0.86,0.87 l 0,-1 1.08,0 0,5.75 z m 7.84,-2.73 0,0.51 -4.97,0 c 0.05,0.75 0.28,1.32 0.68,1.71 0.4,0.38 0.95,0.57 1.66,0.57 0.42,0 0.82,-0.05 1.21,-0.14 0.39,-0.1 0.78,-0.26 1.17,-0.47 l 0,1.04 c -0.4,0.15 -0.8,0.27 -1.21,0.36 -0.4,0.09 -0.81,0.14 -1.23,0.14 -1.04,0 -1.87,-0.31 -2.48,-0.92 -0.62,-0.61 -0.93,-1.43 -0.93,-2.47 0,-1.08 0.3,-1.93 0.88,-2.56 0.58,-0.63 1.36,-0.94 2.34,-0.94 0.89,0 1.59,0.28 2.1,0.85 0.52,0.56 0.78,1.34 0.78,2.32 z m -1.08,-0.33 c -0.01,-0.58 -0.18,-1.05 -0.5,-1.41 -0.32,-0.35 -0.75,-0.53 -1.28,-0.53 -0.61,0 -1.09,0.17 -1.45,0.52 -0.36,0.34 -0.56,0.82 -0.61,1.43 l 3.84,-0.01 z"
                         inkscape:connector-curvature="0" />
                      <path
                         id="path5092"
                         style="fill:none;stroke:#000000;stroke-width:1;stroke-linecap:butt;stroke-linejoin:miter;stroke-miterlimit:1.45000005;stroke-opacity:1;stroke-dasharray:none"
                         d="m 580.5,316.48 0,-74.97"
                         inkscape:connector-curvature="0" />
                      <path
                         id="path5094"
                         style="fill:#000000;fill-opacity:1;fill-rule:nonzero;stroke:none"
                         d="m 580.5,233.51 -5,12 5,-3 5,3 -5,-12 z"
                         inkscape:connector-curvature="0" />
                    </g>
                  </g>
                  <g
                     id="g5096" />
                </g>
              </g>
            </g>
          </g>
          <g
             id="g5098">
            <g
               id="g5100">
              <g
                 clip-path="url(#clipPath5104)"
                 id="g5102" />
            </g>
          </g>
        </g>
      </g>
    </g>
    <path
       sodipodi:type="star"
       style="opacity:0.55670782;color:#000000;fill:url(#linearGradient5699);fill-opacity:1;stroke:#000000;stroke-width:1;stroke-linecap:butt;stroke-linejoin:round;stroke-miterlimit:4;stroke-opacity:1;stroke-dasharray:8, 2, 1, 2;stroke-dashoffset:0;marker:none;visibility:visible;display:inline;overflow:visible;filter:url(#filter5751);enable-background:accumulate"
       id="path5179"
       sodipodi:sides="3"
       sodipodi:cx="-573.52344"
       sodipodi:cy="453.87781"
       sodipodi:r1="419.20822"
       sodipodi:r2="209.6041"
       sodipodi:arg1="-1.5762908"
       sodipodi:arg2="-0.52909323"
       inkscape:flatsided="true"
       inkscape:rounded="0"
       inkscape:randomized="0"
       d="m -575.82675,34.675914 366.49446,626.808106 -726.07898,3.98947 z"
       inkscape:transform-center-x="-0.9911143"
       inkscape:transform-center-y="-85.635627"
       transform="matrix(0.86063757,0,0,0.82498132,1032.7301,40.605988)"
       inkscape:export-filename="/data/dataDeebul/thesis/tex/robocup_symposium_poster/images/dikw-pyramid.png"
       inkscape:export-xdpi="90"
       inkscape:export-ydpi="90" />
    <image
       y="435.60092"
       x="271.77289"
       id="image5929"
       xlink:href="file:///data/dataDeebul/thesis/tex/robocup_symposium_poster/images/cup/cup_cupboard.jpg"
       height="76.800003"
       width="115.2"
       inkscape:export-filename="/data/dataDeebul/thesis/tex/robocup_symposium_poster/images/dikw-pyramid.png"
       inkscape:export-xdpi="90"
       inkscape:export-ydpi="90" />
    <image
       y="435.60092"
       x="479.07059"
       id="image5991"
       xlink:href="file:///data/dataDeebul/thesis/tex/robocup_symposium_poster/images/cup/cup_dishwasher.jpg"
       height="76.800011"
       width="115.2"
       inkscape:export-filename="/data/dataDeebul/thesis/tex/robocup_symposium_poster/images/dikw-pyramid.png"
       inkscape:export-xdpi="90"
       inkscape:export-ydpi="90" />
    <image
       y="435.60092"
       x="688.67145"
       id="image6182"
       xlink:href="file:///data/dataDeebul/thesis/tex/robocup_symposium_poster/images/cup/cup_sink.jpg"
       height="76.800011"
       width="115.2"
       inkscape:export-filename="/data/dataDeebul/thesis/tex/robocup_symposium_poster/images/dikw-pyramid.png"
       inkscape:export-xdpi="90"
       inkscape:export-ydpi="90" />
  </g>
</svg>
